<svg width="78" height="66" viewBox="0 0 78 66" fill="none" xmlns="http://www.w3.org/2000/svg">
<path fill-rule="evenodd" clip-rule="evenodd" d="M8.57142 0C3.83755 0 0 3.83754 0 8.57143V46.4319C0 51.1662 3.83756 55.0034 8.57142 55.0034C28.9586 55.0034 48.3678 55.0034 69.1098 55.0034C73.8435 55.0034 77.6813 51.1662 77.6813 46.4319V28.2178C77.6813 27.7832 77.5818 27.3543 77.3915 26.9639L69.435 10.6733C67.9973 7.73017 65.0081 5.86354 61.7327 5.86354H53.5999C52.4664 2.45669 49.2526 0 45.465 0H8.57142Z" fill="#E3E3E3"/>
<path fill-rule="evenodd" clip-rule="evenodd" d="M77.6835 31.6374H56.9829C55.1046 31.6374 53.582 30.1148 53.582 28.2366V5.80426C53.5887 5.82403 53.5954 5.8438 53.602 5.86363H61.7349C65.0103 5.86363 67.9995 7.73026 69.4366 10.6733L77.3932 26.9639C77.584 27.3544 77.6835 27.7833 77.6835 28.2179V31.6374Z" fill="#B0B0B0"/>
<path fill-rule="evenodd" clip-rule="evenodd" d="M21.1182 43.4503C15.1348 43.4503 10.2842 48.3005 10.2842 54.284C10.2842 60.2674 15.1348 65.1183 21.1182 65.1183C27.1017 65.1183 31.9523 60.2674 31.9523 54.284C31.9523 48.3005 27.1017 43.4503 21.1182 43.4503Z" fill="#636363"/>
<path fill-rule="evenodd" clip-rule="evenodd" d="M57.3304 43.4504C51.3467 43.4504 46.4961 48.3007 46.4961 54.2841C46.4961 60.2676 51.3467 65.1184 57.3304 65.1184C63.3138 65.1184 68.1641 60.2676 68.1641 54.2841C68.1641 48.3007 63.3138 43.4504 57.3304 43.4504Z" fill="#636363"/>
<path fill-rule="evenodd" clip-rule="evenodd" d="M30.6483 14.7625C30.6483 12.7901 29.0493 11.191 27.0769 11.191C25.1044 11.191 23.5054 12.7901 23.5054 14.7625V20.4767H17.7912C15.8187 20.4767 14.2197 22.0758 14.2197 24.0482C14.2197 26.0206 15.8187 27.6196 17.7912 27.6196H23.5054V33.3339C23.5054 35.3064 25.1044 36.9053 27.0769 36.9053C29.0493 36.9053 30.6483 35.3064 30.6483 33.3339V27.6196H36.3626C38.335 27.6196 39.934 26.0206 39.934 24.0482C39.934 22.0758 38.335 20.4767 36.3626 20.4767H30.6483V14.7625Z" fill="#636363"/>
</svg>
