<svg width="80" height="80" viewBox="0 0 80 80" fill="none" xmlns="http://www.w3.org/2000/svg">
<path fill-rule="evenodd" clip-rule="evenodd" d="M9.57142 7C4.83755 7 1 10.8375 1 15.5714V53.4319C1 58.1662 4.83756 62.0034 9.57142 62.0034C29.9586 62.0034 49.3678 62.0034 70.1098 62.0034C74.8435 62.0034 78.6813 58.1662 78.6813 53.4319V35.2178C78.6813 34.7832 78.5818 34.3543 78.3915 33.9639L70.435 17.6733C68.9973 14.7302 66.0081 12.8635 62.7327 12.8635H54.5999C53.4664 9.45669 50.2526 7 46.465 7H9.57142Z" fill="#E3E3E3"/>
<path fill-rule="evenodd" clip-rule="evenodd" d="M78.6835 38.6374H57.9829C56.1046 38.6374 54.582 37.1148 54.582 35.2366V12.8043C54.5887 12.824 54.5954 12.8438 54.602 12.8636H62.7349C66.0103 12.8636 68.9995 14.7303 70.4366 17.6733L78.3932 33.9639C78.584 34.3544 78.6835 34.7833 78.6835 35.2179V38.6374Z" fill="#C9C9C9"/>
<path fill-rule="evenodd" clip-rule="evenodd" d="M22.1182 50.4503C16.1348 50.4503 11.2842 55.3005 11.2842 61.284C11.2842 67.2674 16.1348 72.1183 22.1182 72.1183C28.1017 72.1183 32.9523 67.2674 32.9523 61.284C32.9523 55.3005 28.1017 50.4503 22.1182 50.4503Z" fill="#C9C9C9"/>
<path fill-rule="evenodd" clip-rule="evenodd" d="M58.3304 50.4504C52.3467 50.4504 47.4961 55.3007 47.4961 61.2841C47.4961 67.2676 52.3467 72.1184 58.3304 72.1184C64.3138 72.1184 69.1641 67.2676 69.1641 61.2841C69.1641 55.3007 64.3138 50.4504 58.3304 50.4504Z" fill="#C9C9C9"/>
<path fill-rule="evenodd" clip-rule="evenodd" d="M31.6483 21.7625C31.6483 19.7901 30.0493 18.191 28.0769 18.191C26.1044 18.191 24.5054 19.7901 24.5054 21.7625V27.4768H18.7912C16.8187 27.4768 15.2197 29.0758 15.2197 31.0482C15.2197 33.0206 16.8187 34.6196 18.7912 34.6196H24.5054V40.3339C24.5054 42.3064 26.1044 43.9053 28.0769 43.9053C30.0493 43.9053 31.6483 42.3064 31.6483 40.3339V34.6196H37.3626C39.335 34.6196 40.934 33.0206 40.934 31.0482C40.934 29.0758 39.335 27.4768 37.3626 27.4768H31.6483V21.7625Z" fill="#969696"/>
</svg>
