<svg width="60" height="60" viewBox="0 0 60 60" fill="none" xmlns="http://www.w3.org/2000/svg">
<g id="SNS/kakaotalk">
<circle id="Ellipse 20" cx="30" cy="30" r="30" fill="#FEE500"/>
<g id="Group 316">
<path id="Vector" d="M30.1243 15.5C20.0912 15.5 12 21.9729 12 29.831C12 34.9317 15.3659 39.3981 20.4148 41.9484L18.706 48.3308C18.6738 48.4265 18.6688 48.5291 18.6917 48.6274C18.7145 48.7257 18.7643 48.8158 18.8354 48.8874C18.9391 48.9788 19.0726 49.0294 19.2109 49.0298C19.3255 49.0206 19.4343 48.9753 19.5216 48.9003L26.8748 43.9421C27.9603 44.0919 29.0544 44.1697 30.1502 44.1751C40.1703 44.1751 48.2744 37.7022 48.2744 29.831C48.2744 21.9599 40.1444 15.5 30.1243 15.5Z" fill="#392020"/>
<path id="Vector_2" d="M18.3434 27.5657H16.3627C16.1172 27.5728 15.8747 27.5099 15.6636 27.3844C15.5699 27.3257 15.4893 27.2482 15.4269 27.1569C15.3645 27.0655 15.3217 26.9623 15.3011 26.8536C15.2948 26.7847 15.2948 26.7155 15.3011 26.6466C15.295 26.5176 15.32 26.3891 15.3741 26.2719C15.4282 26.1547 15.5097 26.0523 15.6118 25.9734C15.8375 25.8099 16.1099 25.7236 16.3886 25.7273H22.3566C22.6041 25.7186 22.8482 25.7865 23.0557 25.9215C23.1516 25.9777 23.2339 26.0545 23.2966 26.1462C23.3593 26.238 23.4008 26.3426 23.4182 26.4524C23.4245 26.5169 23.4245 26.582 23.4182 26.6466C23.4243 26.7774 23.3993 26.9077 23.3453 27.027C23.2913 27.1462 23.2098 27.2509 23.1075 27.3326C22.8873 27.4958 22.6175 27.5782 22.3437 27.5657H20.4277V34.3752C20.4355 34.5203 20.413 34.6653 20.3618 34.8013C20.3105 34.9372 20.2315 35.0611 20.1299 35.1649C20.0325 35.2642 19.9153 35.342 19.786 35.3933C19.6567 35.4446 19.5181 35.4682 19.3791 35.4627C19.1359 35.4696 18.898 35.3919 18.7059 35.2427C18.523 35.0969 18.3989 34.89 18.3563 34.66C18.3435 34.5655 18.3435 34.4697 18.3563 34.3752L18.3434 27.5657Z" fill="#FEE500"/>
<path id="Vector_3" d="M23.9891 26.232C24.046 26.019 24.1797 25.8345 24.3645 25.7142C24.5614 25.6026 24.7857 25.5487 25.0118 25.5588H25.5037C25.7436 25.5502 25.9812 25.6085 26.1899 25.7271C26.411 25.8758 26.5681 26.1022 26.63 26.3615L29.2192 33.6759C29.2863 33.8668 29.3425 34.0613 29.3875 34.2586C29.3919 34.3405 29.3919 34.4225 29.3875 34.5045C29.3919 34.6307 29.3687 34.7563 29.3195 34.8725C29.2703 34.9888 29.1963 35.093 29.1027 35.1777C29.012 35.2707 28.9031 35.3439 28.7828 35.3929C28.6625 35.4419 28.5335 35.4656 28.4036 35.4625C28.2039 35.4823 28.0034 35.4344 27.8343 35.3264C27.6652 35.2184 27.5374 35.0565 27.4715 34.867L26.9278 33.2747H23.523L22.9793 34.867C22.915 35.0603 22.7856 35.2252 22.6133 35.3338C22.441 35.4424 22.2363 35.4879 22.0342 35.4625C21.8153 35.4682 21.6009 35.3997 21.4258 35.2682C21.2552 35.1326 21.14 34.9393 21.1021 34.7246C21.0953 34.6514 21.0953 34.5777 21.1021 34.5045C21.0799 34.376 21.0799 34.2447 21.1021 34.1162C21.1021 33.9738 21.1927 33.8183 21.2445 33.6759L23.9891 26.232ZM25.2837 27.928L24.0538 31.8118H26.5006L25.2837 27.928Z" fill="#FEE500"/>
<path id="Vector_4" d="M29.6842 26.6468C29.6711 26.3562 29.7735 26.0723 29.969 25.8571C30.0685 25.7568 30.1878 25.6784 30.3194 25.6271C30.4509 25.5758 30.5918 25.5527 30.7328 25.5592C30.9754 25.5564 31.212 25.6338 31.406 25.7793C31.5858 25.9312 31.7053 26.1424 31.7426 26.3748C31.7554 26.465 31.7554 26.5566 31.7426 26.6468V33.4563H35.3027C35.5495 33.4531 35.7921 33.5203 36.0018 33.6504C36.0961 33.7085 36.1771 33.7859 36.2395 33.8773C36.302 33.9687 36.3445 34.0723 36.3643 34.1812C36.3643 34.1812 36.3643 34.3107 36.3643 34.3754C36.3705 34.5043 36.3454 34.6328 36.2914 34.75C36.2373 34.8671 36.1557 34.9697 36.0536 35.0486C35.8279 35.2121 35.5555 35.2983 35.2769 35.2945H30.9011C30.6225 35.3125 30.3454 35.2399 30.1114 35.0875C29.9021 34.931 29.7627 34.6985 29.7231 34.4402C29.7136 34.298 29.7136 34.1551 29.7231 34.0129L29.6842 26.6468Z" fill="#FEE500"/>
<path id="Vector_5" d="M36.5975 26.6463C36.5898 26.3566 36.6915 26.0747 36.8823 25.8566C37.0763 25.6803 37.3252 25.5762 37.587 25.5621C37.8488 25.5479 38.1074 25.6245 38.3193 25.7789C38.5031 25.9294 38.627 26.1405 38.6689 26.3744C38.6753 26.4649 38.6753 26.5558 38.6689 26.6463V29.818L41.9442 26.0377C42.0704 25.9088 42.2044 25.7878 42.3455 25.6754C42.4785 25.5962 42.6309 25.5557 42.7857 25.5588C43.0119 25.5575 43.2332 25.6253 43.42 25.753C43.508 25.8122 43.5832 25.8887 43.641 25.9777C43.6989 26.0667 43.7382 26.1663 43.7566 26.2708C43.7618 26.2965 43.7618 26.323 43.7566 26.3486C43.7503 26.3785 43.7503 26.4093 43.7566 26.4391C43.7562 26.5754 43.7205 26.7092 43.653 26.8276C43.5843 26.9529 43.5018 27.07 43.4071 27.177L41.258 29.5332L43.8472 33.5464V33.6759C43.9817 33.8614 44.0865 34.0668 44.1579 34.2844V34.3491C44.1729 34.4991 44.1513 34.6505 44.0949 34.7903C44.0385 34.9301 43.9491 35.0541 43.8343 35.1517C43.6183 35.3149 43.3541 35.4016 43.0834 35.3978C42.9036 35.4052 42.7249 35.3649 42.5656 35.2811C42.3932 35.1655 42.2511 35.0101 42.1513 34.8281L39.7434 30.9443L38.5912 32.1483V34.3102C38.5989 34.5999 38.4972 34.8818 38.3064 35.0999C38.2041 35.1999 38.0824 35.278 37.9488 35.3292C37.8152 35.3804 37.6726 35.4037 37.5296 35.3978C37.2907 35.4028 37.0575 35.325 36.8694 35.1776C36.6865 35.0319 36.5624 34.8251 36.5198 34.5951C36.5071 34.5006 36.5071 34.4047 36.5198 34.3102L36.5975 26.6463Z" fill="#FEE500"/>
</g>
</g>
</svg>
