<svg width="25" height="24" viewBox="0 0 25 24" fill="none" xmlns="http://www.w3.org/2000/svg">
<g id="empathize">
<g id="Vector">
<path d="M9.60004 5.5C9.60004 6.16304 9.86343 6.79893 10.3323 7.26777C10.8011 7.73661 11.437 8 12.1 8C12.7631 8 13.399 7.73661 13.8678 7.26777C14.3366 6.79893 14.6 6.16304 14.6 5.5C14.6 4.83696 14.3366 4.20107 13.8678 3.73223C13.399 3.26339 12.7631 3 12.1 3C11.437 3 10.8011 3.26339 10.3323 3.73223C9.86343 4.20107 9.60004 4.83696 9.60004 5.5Z" stroke="#969696" stroke-width="2" stroke-linecap="round" stroke-linejoin="round"/>
<path d="M12.1001 21.368L17.1951 16.272C17.4849 15.9859 17.7152 15.6454 17.8729 15.2699C18.0305 14.8945 18.1124 14.4916 18.1137 14.0844C18.115 13.6772 18.0358 13.2737 17.8805 12.8973C17.7253 12.5208 17.4972 12.1788 17.2092 11.8908C16.9213 11.6029 16.5793 11.3747 16.2028 11.2195C15.8263 11.0643 15.4229 10.9851 15.0157 10.9864C14.6085 10.9877 14.2056 11.0695 13.8301 11.2272C13.4547 11.3849 13.1141 11.6152 12.8281 11.905L12.1001 12.632L11.3721 11.905C11.086 11.6152 10.7454 11.3849 10.37 11.2272C9.99454 11.0695 9.59162 10.9877 9.18442 10.9864C8.77722 10.9851 8.37378 11.0643 7.99732 11.2195C7.62086 11.3747 7.27882 11.6029 6.99088 11.8908C6.70294 12.1788 6.4748 12.5208 6.31958 12.8973C6.16436 13.2737 6.08512 13.6772 6.08644 14.0844C6.08776 14.4916 6.1696 14.8945 6.32726 15.2699C6.48491 15.6454 6.71526 15.9859 7.00506 16.272L12.1001 21.368Z" stroke="#969696" stroke-width="2" stroke-linecap="round" stroke-linejoin="round"/>
</g>
</g>
</svg>
