<svg width="121" height="112" viewBox="0 0 121 112" fill="none" xmlns="http://www.w3.org/2000/svg">
<g clip-path="url(#clip0_2359_4745)">
<path d="M92.77 29.9901C122.7 26.8201 129.78 43.6001 109.21 65.0301C104.69 69.7401 103 76.5201 104.93 82.7601C106.16 86.7001 106.56 91.0001 105.56 95.5001C100.36 113.31 74.01 112.38 62.23 101.25C60.45 99.4401 59.3 101.28 57.96 102.28C43.09 116.23 9.18 116.09 13.11 88.5401C12.64 80.4801 21.91 71.2801 16.47 69.3201C16.19 69.2201 15.92 69.1301 15.65 69.0001C4.2 63.3901 -8.3 45.5901 7.56 36.7401C26.9 25.9401 35.83 37.9201 39.49 24.9501C48.38 -6.60987 75.31 -10.2099 86.74 25.6201C87.6 28.3401 89.93 30.2901 92.77 29.9901Z" fill="#D7EBFD"/>
<path d="M52.64 68.9699C58.8366 68.9699 63.86 61.9542 63.86 53.2999C63.86 44.6456 58.8366 37.6299 52.64 37.6299C46.4434 37.6299 41.42 44.6456 41.42 53.2999C41.42 61.9542 46.4434 68.9699 52.64 68.9699Z" fill="white"/>
<path d="M71.72 68.9699C77.9166 68.9699 82.94 61.9542 82.94 53.2999C82.94 44.6456 77.9166 37.6299 71.72 37.6299C65.5234 37.6299 60.5 44.6456 60.5 53.2999C60.5 61.9542 65.5234 68.9699 71.72 68.9699Z" fill="white"/>
<path d="M67.49 56.2297C68.9425 56.2297 70.12 55.0522 70.12 53.5997C70.12 52.1472 68.9425 50.9697 67.49 50.9697C66.0375 50.9697 64.86 52.1472 64.86 53.5997C64.86 55.0522 66.0375 56.2297 67.49 56.2297Z" fill="#545454"/>
<path d="M57.01 57.2297C58.4625 57.2297 59.64 56.0522 59.64 54.5997C59.64 53.1472 58.4625 51.9697 57.01 51.9697C55.5575 51.9697 54.38 53.1472 54.38 54.5997C54.38 56.0522 55.5575 57.2297 57.01 57.2297Z" fill="#545454"/>
<path d="M90.46 66.2301C89.35 70.6001 84.09 71.4901 77.83 71.4901C71.57 71.4901 68.1 69.1101 68.1 66.0501C68.1 62.9801 71.57 58.8301 77.83 58.8301C84.09 58.8301 92.01 60.1301 90.46 66.2301Z" fill="#88CCFF"/>
<path d="M48.56 71.9999C52.7267 71.1665 61.06 72.4999 61.06 84.4999" stroke="white" stroke-width="3" stroke-linecap="round"/>
<path d="M60.06 78.5002C61.06 76.0002 64.36 71.4002 69.56 73.0002" stroke="white" stroke-width="3" stroke-linecap="round"/>
</g>
<defs>
<clipPath id="clip0_2359_4745">
<rect width="120.88" height="111.41" fill="white" transform="translate(0.0600014)"/>
</clipPath>
</defs>
</svg>
