<svg width="63" height="27" viewBox="0 0 63 27" fill="none" xmlns="http://www.w3.org/2000/svg">
<rect width="63" height="27" rx="4" fill="#F0F6FF"/>
<path d="M17.6895 13.8574V15.0879H12.7676V19.2031H11.2637V15.0879H6.39648V13.8574H17.6895ZM16.3086 7.48633V12.4082H7.77734V7.48633H16.3086ZM9.26758 8.70312V11.2188H14.791V8.70312H9.26758ZM29.5927 16.5234V17.7812H18.2998V16.5234H21.2939V14.4863H19.6396V10.4531H26.749V8.93555H19.6123V7.70508H28.2529V11.6699H21.1572V13.2559H28.54V14.4863H26.7353V16.5234H29.5927ZM22.7705 16.5234H25.2451V14.4863H22.7705V16.5234ZM43.6513 6.85742V13.5977H42.1337V10.959H40.0009V9.70117H42.1337V6.85742H43.6513ZM37.0204 14.1172V15.4023H42.1337V14.1172H43.6513V19.0664H35.5028V14.1172H37.0204ZM37.0204 17.8359H42.1337V16.5918H37.0204V17.8359ZM40.3973 7.48633V8.73047H37.8407C37.8544 10.2139 38.8524 11.7451 40.7528 12.3809L39.9872 13.5566C38.6063 13.0781 37.6288 12.1484 37.0888 10.9863C36.5419 12.2783 35.5165 13.3174 34.0536 13.8164L33.2743 12.6133C35.2294 11.9502 36.2821 10.3506 36.2958 8.73047H33.7255V7.48633H40.3973ZM51.5623 11.2734V12.8457H56.4569V14.0762H45.1912V12.8457H50.0584V11.2734H51.5623ZM50.8104 14.8691C53.4901 14.8691 55.076 15.6348 55.0897 17.0293C55.076 18.4238 53.4901 19.2031 50.8104 19.2031C48.117 19.2031 46.5037 18.4238 46.5037 17.0293C46.5037 15.6348 48.117 14.8691 50.8104 14.8691ZM50.8104 16.0312C48.992 16.0312 48.035 16.373 48.0487 17.0293C48.035 17.7129 48.992 18.0547 50.8104 18.0547C52.5877 18.0547 53.5584 17.7129 53.5721 17.0293C53.5584 16.373 52.5877 16.0312 50.8104 16.0312ZM55.4452 7.4043V8.62109H51.8905C52.1366 9.62598 53.62 10.5283 55.9237 10.7539L55.3768 11.9434C53.1346 11.7178 51.4803 10.8428 50.8104 9.5918C50.1405 10.8428 48.4998 11.7178 46.2577 11.9434L45.7245 10.7539C48.0077 10.5283 49.4911 9.63281 49.744 8.62109H46.2166V7.4043H55.4452Z" fill="#2979FF"/>
</svg>
