<svg width="25" height="24" viewBox="0 0 25 24" fill="none" xmlns="http://www.w3.org/2000/svg">
<g id="home">
<path id="Vector" d="M9.90002 21V15C9.90002 14.4696 10.1107 13.9609 10.4858 13.5858C10.8609 13.2107 11.3696 13 11.9 13H13.9C14.4305 13 14.9392 13.2107 15.3142 13.5858C15.6893 13.9609 15.9 14.4696 15.9 15V21M5.90002 12H3.90002L12.9 3L21.9 12H19.9V19C19.9 19.5304 19.6893 20.0391 19.3142 20.4142C18.9392 20.7893 18.4305 21 17.9 21H7.90002C7.36959 21 6.86088 20.7893 6.48581 20.4142C6.11074 20.0391 5.90002 19.5304 5.90002 19V12Z" stroke="#969696" stroke-width="2" stroke-linecap="round" stroke-linejoin="round"/>
</g>
</svg>
