<svg width="60" height="60" viewBox="0 0 60 60" fill="none" xmlns="http://www.w3.org/2000/svg">
<path d="M10.799 52.9885C10.7843 50.5466 11.5619 48.2293 12.0402 45.8714C12.2691 44.7475 11.8495 44.5911 10.9193 44.5853C8.36058 44.5651 5.82532 44.3536 3.48079 43.2065C-0.398398 41.3063 -1.14372 37.1062 1.79355 33.9576C3.83584 31.7677 6.15983 29.8936 8.5337 28.0832C9.24968 27.5357 9.2174 27.2808 8.72737 26.5943C7.01079 24.1785 5.25019 21.8004 4.42858 18.8632C2.97608 13.6666 6.70855 9.6171 12.1107 10.6251C14.4112 11.0538 16.7557 11.2595 19.0239 11.8707C20.0245 12.1401 20.5762 11.7606 20.8784 10.7381C21.6238 8.20353 22.8562 5.88622 24.4935 3.80064C28.7571 -1.62476 31.7677 -0.897708 35.5941 3.80644C37.2461 5.83698 38.4551 8.21802 39.1593 10.7671C39.4527 11.8272 40.0484 12.0619 41.0343 11.8707C43.4317 11.4101 45.8232 10.9032 48.2381 10.5527C51.9324 10.0168 56.1432 12.059 55.8909 16.85C55.7735 19.092 54.9548 21.0791 53.8104 22.9532C53.0387 24.2191 52.2053 25.4588 51.2722 26.6146C50.6971 27.3243 50.8467 27.5907 51.5216 28.0948C53.7517 29.7661 55.9055 31.5302 57.8275 33.5607C59.4531 35.2784 60.4625 37.2047 59.7876 39.5857C59.0423 42.2246 56.9237 43.4006 54.4149 43.9655C52.6161 44.371 50.7851 44.6491 48.9218 44.5969C48.1266 44.5737 47.7774 44.7765 47.9623 45.7411C48.4699 48.3944 49.4617 50.9927 49.2211 53.7474C49.0451 55.7693 48.7546 57.7795 46.8003 59.0598C45.4681 59.9317 44.045 60.1548 42.5044 59.9028C39.1564 59.3524 36.5976 57.3972 34.1299 55.2942C32.9943 54.3267 31.8587 53.3564 30.7994 52.3107C30.1891 51.7082 29.79 51.7198 29.2178 52.3309C27.3428 54.3296 25.1449 55.972 22.953 57.6057C21.1278 58.9671 19.0239 59.784 16.7557 59.9723C13.3842 60.2533 11.0836 57.9475 10.8049 54.1761C10.7726 53.7822 10.799 53.3824 10.799 52.9885Z" fill="#B5DDFF"/>
</svg>
