<svg width="25" height="24" viewBox="0 0 25 24" fill="none" xmlns="http://www.w3.org/2000/svg">
<g id="mood-kid">
<path id="Vector" d="M12.5 3C13.6819 3 14.8522 3.23279 15.9442 3.68508C17.0361 4.13738 18.0282 4.80031 18.864 5.63604C19.6997 6.47177 20.3626 7.46392 20.8149 8.55585C21.2672 9.64778 21.5 10.8181 21.5 12C21.5 13.1819 21.2672 14.3522 20.8149 15.4442C20.3626 16.5361 19.6997 17.5282 18.864 18.364C18.0282 19.1997 17.0361 19.8626 15.9442 20.3149C14.8522 20.7672 13.6819 21 12.5 21C11.3181 21 10.1478 20.7672 9.05585 20.3149C7.96392 19.8626 6.97177 19.1997 6.13604 18.364C5.30031 17.5282 4.63738 16.5361 4.18508 15.4442C3.73279 14.3522 3.5 13.1819 3.5 12C3.5 10.8181 3.73279 9.64778 4.18508 8.55585C4.63738 7.46392 5.30031 6.47177 6.13604 5.63604C6.97177 4.80031 7.96392 4.13738 9.05585 3.68508C10.1478 3.23279 11.3181 3 12.5 3ZM12.5 3C11.9696 3 11.4609 3.21071 11.0858 3.58579C10.7107 3.96086 10.5 4.46957 10.5 5C10.5 5.53043 10.7107 6.03914 11.0858 6.41421C11.4609 6.78929 11.9696 7 12.5 7M9.5 10H9.51M15.5 10H15.51M10 15C10.3259 15.3326 10.7148 15.5968 11.1441 15.7772C11.5734 15.9576 12.0344 16.0505 12.5 16.0505C12.9656 16.0505 13.4266 15.9576 13.8559 15.7772C14.2852 15.5968 14.6741 15.3326 15 15" stroke="#969696" stroke-width="2" stroke-linecap="round" stroke-linejoin="round"/>
</g>
</svg>
