<svg width="25" height="24" viewBox="0 0 25 24" fill="none" xmlns="http://www.w3.org/2000/svg">
<g id="search">
<path id="Vector" d="M21.3 21L15.3 15M3.30005 10C3.30005 10.9193 3.48111 11.8295 3.83289 12.6788C4.18468 13.5281 4.70029 14.2997 5.3503 14.9497C6.00031 15.5998 6.77199 16.1154 7.62126 16.4672C8.47054 16.8189 9.3808 17 10.3 17C11.2193 17 12.1296 16.8189 12.9788 16.4672C13.8281 16.1154 14.5998 15.5998 15.2498 14.9497C15.8998 14.2997 16.4154 13.5281 16.7672 12.6788C17.119 11.8295 17.3 10.9193 17.3 10C17.3 9.08075 17.119 8.1705 16.7672 7.32122C16.4154 6.47194 15.8998 5.70026 15.2498 5.05025C14.5998 4.40024 13.8281 3.88463 12.9788 3.53284C12.1296 3.18106 11.2193 3 10.3 3C9.3808 3 8.47054 3.18106 7.62126 3.53284C6.77199 3.88463 6.00031 4.40024 5.3503 5.05025C4.70029 5.70026 4.18468 6.47194 3.83289 7.32122C3.48111 8.1705 3.30005 9.08075 3.30005 10Z" stroke="#969696" stroke-width="2" stroke-linecap="round" stroke-linejoin="round"/>
</g>
</svg>
