<svg width="16" height="16" viewBox="0 0 16 16" fill="none" xmlns="http://www.w3.org/2000/svg">
<path fill-rule="evenodd" clip-rule="evenodd" d="M8.00008 1.52014C6.01186 1.52014 4.40008 3.13191 4.40008 5.12014V10.8801C4.40008 11.2778 4.07772 11.6001 3.68008 11.6001C1.69185 11.6001 0.0800781 9.98837 0.0800781 8.00014C0.0800781 6.24355 1.33816 4.78082 3.00242 4.46382C3.32408 1.9904 5.439 0.0801392 8.00008 0.0801392C10.5612 0.0801392 12.6761 1.9904 12.9977 4.46382C14.662 4.78082 15.9201 6.24355 15.9201 8.00014C15.9201 9.75673 14.662 11.2195 12.9977 11.5365C12.6761 14.0099 10.5612 15.9201 8.00008 15.9201C7.60243 15.9201 7.28008 15.5978 7.28008 15.2001C7.28008 14.8025 7.60243 14.4801 8.00008 14.4801C9.9883 14.4801 11.6001 12.8684 11.6001 10.8801V5.12014C11.6001 3.13191 9.9883 1.52014 8.00008 1.52014ZM13.0401 10.0372C13.879 9.74071 14.4801 8.94063 14.4801 8.00014C14.4801 7.05965 13.879 6.25957 13.0401 5.96305V10.0372ZM2.96008 5.96305C2.12114 6.25957 1.52008 7.05966 1.52008 8.00014C1.52008 8.94062 2.12114 9.74071 2.96008 10.0372V5.96305Z" fill="white"/>
</svg>
