<svg width="32" height="32" viewBox="0 0 32 32" fill="none" xmlns="http://www.w3.org/2000/svg">
<rect width="32" height="32" rx="8" fill="white"/>
<path d="M9.24743 8.14271C10.4087 8.14271 10.7778 8.13915 11.6226 8.25957C12.0877 8.30155 12.6043 8.2673 12.791 7.81436C13.2826 6.62458 13.8935 5.49003 14.8027 4.55433C15.5274 3.80864 16.4554 3.81638 17.1878 4.5709C18.1379 5.55079 18.7355 6.75494 19.2746 7.9856C19.4028 8.27945 19.5453 8.39987 19.8568 8.37888C20.6261 8.30841 20.0531 8.36619 20.9022 8.25318C21.8965 8.12085 22.725 8.03223 24.9849 8.27503C25.5914 8.28387 25.988 8.93455 25.8533 9.5543C25.587 10.775 24.9485 11.8322 24.3409 12.8961C23.7046 14.0085 23.6725 14.0019 24.6635 14.7962C25.355 15.3508 26.0643 15.8833 26.7735 16.4157C27.0784 16.6455 27.3303 16.9162 27.559 17.2211C28.4726 18.4363 27.844 19.4416 26.7923 19.847C25.6312 20.2944 24.4668 20.7396 23.2682 21.0765C22.781 21.2135 22.5413 21.3737 22.7004 21.9736C23.0252 23.1932 23.2019 24.4493 23.3599 25.702C23.509 26.8852 22.9268 28.0186 21.314 27.5911C20.006 27.2442 18.9233 26.4941 17.833 25.7473C17.2895 25.375 16.7437 25.0038 16.2146 24.6095C15.9439 24.4073 15.8047 24.6194 15.6257 24.7343C14.3255 25.5683 13.1247 26.5582 11.7139 27.2221C11.3173 27.4088 10.9075 27.5524 10.4833 27.6342C9.09463 27.9015 8.52127 27.0531 8.60965 25.8622C8.71239 24.4901 8.98968 23.1358 9.30342 21.7957C9.39511 21.4035 9.28574 21.2445 8.92229 21.145C7.75681 20.8258 6.92751 20.5708 5.54661 20.0185C4.86168 19.7721 4.18193 19.4173 4.03279 18.634C3.86266 17.7414 4.37967 17.1051 5.00384 16.5892C5.93291 15.8203 6.8896 15.0801 7.8717 14.3808C8.28707 14.0848 8.20864 13.8727 7.99985 13.5048C7.27404 12.2288 6.45102 10.996 6.12513 9.52668C6.05664 9.21847 6.11298 8.95886 6.26543 8.71913C6.43335 8.45621 6.68412 8.28056 7.01002 8.25957C7.70082 8.14271 8.25318 8.14271 9.24743 8.14271ZM20.0159 13.8594C20.0601 13.2496 19.9231 12.6884 19.6348 12.1637C19.2691 11.4997 18.7609 10.9949 17.96 10.9993C17.126 11.0048 16.7017 11.5958 16.2875 12.2487C16.1925 12.3979 16.2035 12.5713 16.0389 12.5525C15.8997 12.5371 15.8456 12.3934 15.7307 12.2708C14.9651 11.0258 13.3622 11.0368 12.6386 12.3084C12.095 13.2629 12.0255 14.2869 12.39 15.3132C12.6883 16.1561 13.2539 16.7273 14.2106 16.767C15.1938 16.809 15.6998 16.4997 16.1251 15.5121C16.2996 15.1055 16.3935 15.227 16.5957 15.469C17.3911 16.4224 18.7267 16.4831 19.511 15.5982C19.9496 15.1022 20.059 14.4946 20.0159 13.8594Z" fill="#7BC4FF"/>
<path d="M16.569 13.9921C16.569 15.612 15.5607 16.9253 14.3168 16.9253C13.0729 16.9253 12.0645 15.612 12.0645 13.9921C12.0645 12.3721 13.0729 11.0588 14.3168 11.0588C15.5607 11.0588 16.569 12.3721 16.569 13.9921Z" fill="#7BC4FF"/>
<path d="M20.3289 13.7825C20.3289 15.4025 19.3205 16.7157 18.0766 16.7157C16.8327 16.7157 15.8243 15.4025 15.8243 13.7825C15.8243 12.1625 16.8327 10.8493 18.0766 10.8493C19.3205 10.8493 20.3289 12.1625 20.3289 13.7825Z" fill="#7BC4FF"/>
<path d="M15.5996 14.053C15.5996 14.358 15.3523 14.6053 15.0472 14.6053C14.7422 14.6053 14.4949 14.358 14.4949 14.053C14.4949 13.7479 14.7422 13.5006 15.0472 13.5006C15.3523 13.5006 15.5996 13.7479 15.5996 14.053Z" fill="#7BC4FF"/>
<path d="M17.9195 13.832C17.9195 14.1371 17.6722 14.3844 17.3671 14.3844C17.0621 14.3844 16.8148 14.1371 16.8148 13.832C16.8148 13.527 17.0621 13.2797 17.3671 13.2797C17.6722 13.2797 17.9195 13.527 17.9195 13.832Z" fill="#7BC4FF"/>
</svg>
