<svg width="160" height="160" viewBox="0 0 160 160" fill="none" xmlns="http://www.w3.org/2000/svg">
<rect width="160" height="160" rx="12" fill="#FAFAFA"/>
<path fill-rule="evenodd" clip-rule="evenodd" d="M49.5714 47C44.8376 47 41 50.8375 41 55.5714V93.4319C41 98.1662 44.8376 102.003 49.5714 102.003C69.9586 102.003 89.3678 102.003 110.11 102.003C114.844 102.003 118.681 98.1662 118.681 93.4319V75.2178C118.681 74.7832 118.582 74.3543 118.392 73.9639L110.435 57.6733C108.997 54.7302 106.008 52.8635 102.733 52.8635H94.5999C93.4664 49.4567 90.2526 47 86.465 47H49.5714Z" fill="#E3E3E3"/>
<path fill-rule="evenodd" clip-rule="evenodd" d="M118.683 78.6374H97.9829C96.1046 78.6374 94.582 77.1148 94.582 75.2366V52.8043C94.5887 52.824 94.5954 52.8438 94.602 52.8636H102.735C106.01 52.8636 108.999 54.7303 110.437 57.6733L118.393 73.9639C118.584 74.3544 118.683 74.7833 118.683 75.2179V78.6374Z" fill="#B0B0B0"/>
<path fill-rule="evenodd" clip-rule="evenodd" d="M62.1182 90.4503C56.1348 90.4503 51.2842 95.3005 51.2842 101.284C51.2842 107.267 56.1348 112.118 62.1182 112.118C68.1017 112.118 72.9523 107.267 72.9523 101.284C72.9523 95.3005 68.1017 90.4503 62.1182 90.4503Z" fill="#636363"/>
<path fill-rule="evenodd" clip-rule="evenodd" d="M98.3304 90.4504C92.3467 90.4504 87.4961 95.3007 87.4961 101.284C87.4961 107.268 92.3467 112.118 98.3304 112.118C104.314 112.118 109.164 107.268 109.164 101.284C109.164 95.3007 104.314 90.4504 98.3304 90.4504Z" fill="#636363"/>
<path fill-rule="evenodd" clip-rule="evenodd" d="M71.6483 61.7625C71.6483 59.7901 70.0493 58.191 68.0769 58.191C66.1044 58.191 64.5054 59.7901 64.5054 61.7625V67.4767H58.7912C56.8187 67.4767 55.2197 69.0758 55.2197 71.0482C55.2197 73.0206 56.8187 74.6196 58.7912 74.6196H64.5054V80.3339C64.5054 82.3064 66.1044 83.9053 68.0769 83.9053C70.0493 83.9053 71.6483 82.3064 71.6483 80.3339V74.6196H77.3626C79.335 74.6196 80.934 73.0206 80.934 71.0482C80.934 69.0758 79.335 67.4767 77.3626 67.4767H71.6483V61.7625Z" fill="#636363"/>
</svg>
