<svg width="97" height="40" viewBox="0 0 97 40" fill="none" xmlns="http://www.w3.org/2000/svg">
<g filter="url(#filter0_d_1843_5436)">
<g clip-path="url(#clip0_1843_5436)">
<rect x="4" y="4" width="32" height="32" rx="5" fill="white"/>
<path d="M16.8449 13.519C18.5672 13.519 19.1146 13.5137 20.3675 13.6923C21.0573 13.7546 21.8235 13.7038 22.1004 13.0321C22.8295 11.2675 23.7355 9.58485 25.0839 8.19712C26.1587 7.0912 27.535 7.10267 28.6212 8.2217C30.0303 9.67496 30.9166 11.4608 31.7162 13.286C31.9062 13.7218 32.1176 13.9004 32.5796 13.8693C33.7205 13.7648 32.8708 13.8505 34.1301 13.6829C35.6046 13.4866 36.8334 13.3552 40.1851 13.7153C41.0846 13.7284 41.6728 14.6934 41.4729 15.6125C41.078 17.423 40.131 18.9909 39.2299 20.5687C38.2862 22.2186 38.2387 22.2087 39.7083 23.3868C40.7339 24.2092 41.7858 24.9989 42.8377 25.7887C43.2899 26.1294 43.6634 26.5309 44.0026 26.9831C45.3575 28.7853 44.4253 30.2762 42.8655 30.8775C41.1436 31.5411 39.4167 32.2014 37.639 32.7011C36.9165 32.9042 36.5609 33.1418 36.7969 34.0315C37.2786 35.8403 37.5407 37.7031 37.775 39.5611C37.9962 41.3158 37.1327 42.9968 34.7407 42.3627C32.8008 41.8483 31.1952 40.7358 29.5781 39.6282C28.772 39.0761 27.9626 38.5256 27.1778 37.9407C26.7764 37.6409 26.57 37.9554 26.3045 38.1258C24.3761 39.3628 22.5952 40.8308 20.5029 41.8155C19.9148 42.0924 19.3069 42.3054 18.6778 42.4266C16.6183 42.8231 15.768 41.5648 15.899 39.7986C16.0514 37.7637 16.4626 35.7551 16.928 33.7677C17.0639 33.186 16.9017 32.9501 16.3627 32.8027C14.6342 32.3292 13.4043 31.951 11.3563 31.1318C10.3405 30.7665 9.33231 30.2402 9.11113 29.0786C8.85881 27.7547 9.62559 26.811 10.5513 26.0459C11.9292 24.9056 13.348 23.8078 14.8046 22.7707C15.4206 22.3316 15.3043 22.0171 14.9946 21.4715C13.9182 19.5791 12.6976 17.7507 12.2143 15.5716C12.1127 15.1145 12.1962 14.7294 12.4223 14.3739C12.6714 13.984 13.0433 13.7235 13.5266 13.6923C14.5512 13.519 15.3704 13.519 16.8449 13.519ZM32.8155 21.9974C32.8811 21.093 32.6779 20.2607 32.2503 19.4824C31.708 18.4978 30.9543 17.749 29.7665 17.7556C28.5295 17.7638 27.9003 18.6403 27.2859 19.6086C27.145 19.8298 27.1614 20.087 26.9173 20.0592C26.7109 20.0362 26.6306 19.8232 26.4602 19.6414C25.3248 17.7949 22.9474 17.8113 21.8743 19.6971C21.0682 21.1127 20.965 22.6315 21.5056 24.1535C21.948 25.4036 22.7869 26.2507 24.2057 26.3097C25.6639 26.3719 26.4143 25.9132 27.0451 24.4484C27.304 23.8455 27.4432 24.0257 27.743 24.3845C28.9227 25.7985 30.9035 25.8886 32.0668 24.5762C32.7172 23.8406 32.8794 22.9395 32.8155 21.9974Z" fill="#7BC4FF"/>
<path d="M27.7035 22.1941C27.7035 24.5967 26.208 26.5443 24.3632 26.5443C22.5184 26.5443 21.0228 24.5967 21.0228 22.1941C21.0228 19.7916 22.5184 17.8439 24.3632 17.8439C26.208 17.8439 27.7035 19.7916 27.7035 22.1941Z" fill="white"/>
<path d="M33.2797 21.8833C33.2797 24.2859 31.7842 26.2335 29.9394 26.2335C28.0945 26.2335 26.599 24.2859 26.599 21.8833C26.599 19.4808 28.0945 17.5331 29.9394 17.5331C31.7842 17.5331 33.2797 19.4808 33.2797 21.8833Z" fill="white"/>
<path d="M26.2657 22.2845C26.2657 22.7369 25.899 23.1037 25.4465 23.1037C24.9941 23.1037 24.6273 22.7369 24.6273 22.2845C24.6273 21.832 24.9941 21.4653 25.4465 21.4653C25.899 21.4653 26.2657 21.832 26.2657 22.2845Z" fill="#3F3F3F"/>
<path d="M29.7064 21.9568C29.7064 22.4092 29.3396 22.776 28.8872 22.776C28.4347 22.776 28.068 22.4092 28.068 21.9568C28.068 21.5044 28.4347 21.1376 28.8872 21.1376C29.3396 21.1376 29.7064 21.5044 29.7064 21.9568Z" fill="#3F3F3F"/>
</g>
</g>
<path d="M72.5132 17.7075C72.6641 17.7075 72.7547 17.7925 72.7547 17.9623V20.1698C72.7547 20.3396 72.6641 20.4245 72.5132 20.4245H69.5245V31.7453C69.5245 31.9151 69.434 32 69.283 32H66.717C66.5358 32 66.4755 31.9151 66.4755 31.7453V8.22642C66.4755 8.08491 66.5358 8 66.717 8H69.283C69.434 8 69.5245 8.08491 69.5245 8.22642V17.7075H72.5132ZM55.4264 8.36792C55.5774 8.36792 55.6679 8.45283 55.6679 8.62264V10.8302C55.6679 11 55.5774 11.0849 55.4264 11.0849H51.0491V27.4717H55.4264C55.5774 27.4717 55.6679 27.5566 55.6679 27.6981V29.934C55.6679 30.1038 55.5774 30.1604 55.4264 30.1604H50.0528C49.4491 30.1604 48.966 29.9906 48.5736 29.6226C48.1811 29.2547 48 28.8019 48 28.2358V10.2925C48 9.78302 48.1811 9.33019 48.5736 8.93396C48.966 8.56604 49.4491 8.36792 50.0528 8.36792H55.4264ZM63.8792 8.36792C64.0604 8.36792 64.1509 8.45283 64.1509 8.62264V10.8302C64.1509 11 64.0604 11.0849 63.8792 11.0849H59.5019V27.4717H63.8792C64.0604 27.4717 64.1509 27.5566 64.1509 27.6981V29.934C64.1509 30.1038 64.0604 30.1604 63.8792 30.1604H58.5057C57.9019 30.1604 57.4189 29.9906 57.0264 29.6226C56.634 29.2547 56.4528 28.8019 56.4528 28.2358V10.2925C56.4528 9.78302 56.634 9.33019 57.0264 8.93396C57.4189 8.56604 57.9019 8.36792 58.5057 8.36792H63.8792Z" fill="#248DFF"/>
<path d="M74.8552 23.9057C74.8552 23.3962 75.0363 22.9434 75.4288 22.5472C75.8212 22.1792 76.3042 21.9811 76.908 21.9811H92.425C92.9986 21.9811 93.4816 22.1792 93.8741 22.5472C94.2665 22.9434 94.4778 23.3962 94.4778 23.9057V30.0472C94.4778 30.6132 94.2665 31.066 93.8741 31.434C93.4816 31.8019 92.9986 31.9717 92.425 31.9717H76.908C76.3042 31.9717 75.8212 31.8019 75.4288 31.434C75.0363 31.066 74.8552 30.6132 74.8552 30.0472V23.9057ZM91.4288 24.6698H77.9042V29.283H91.4288V24.6698ZM95.7458 17.6226C95.9269 17.6226 96.0174 17.7075 96.0174 17.8774V20.0849C96.0174 20.2547 95.9269 20.3396 95.7458 20.3396H73.5571C73.3759 20.3396 73.3156 20.2547 73.3156 20.0849V17.8774C73.3156 17.7075 73.3759 17.6226 73.5571 17.6226H84.0024V13.6321C84.0024 13.4623 84.0627 13.3774 84.2439 13.3774H86.7797C86.9608 13.3774 87.0514 13.4623 87.0514 13.6321V17.6226H95.7458ZM74.4929 8.22642C74.4929 8.08491 74.5835 8 74.7646 8H80.6816C81.2552 8 81.7382 8.19811 82.1307 8.56604C82.5231 8.93396 82.7344 9.38679 82.7344 9.92453V15.9811C82.7344 16.1509 82.6439 16.2075 82.4929 16.2075H79.9269C79.7458 16.2075 79.6854 16.1509 79.6854 15.9811V10.8585H74.7646C74.5835 10.8585 74.4929 10.7736 74.4929 10.6038V8.22642ZM84.908 8.22642C84.908 8.08491 84.9684 8 85.1495 8H91.9722C92.5457 8 93.0288 8.19811 93.4212 8.56604C93.8137 8.93396 94.025 9.38679 94.025 9.92453V15.9811C94.025 16.1509 93.9344 16.2075 93.7835 16.2075H91.2174C91.0363 16.2075 90.9759 16.1509 90.9759 15.9811V10.8585H85.1495C84.9684 10.8585 84.908 10.7736 84.908 10.6038V8.22642Z" fill="#248DFF"/>
<defs>
<filter id="filter0_d_1843_5436" x="0" y="0" width="40" height="40" filterUnits="userSpaceOnUse" color-interpolation-filters="sRGB">
<feFlood flood-opacity="0" result="BackgroundImageFix"/>
<feColorMatrix in="SourceAlpha" type="matrix" values="0 0 0 0 0 0 0 0 0 0 0 0 0 0 0 0 0 0 127 0" result="hardAlpha"/>
<feOffset/>
<feGaussianBlur stdDeviation="2"/>
<feComposite in2="hardAlpha" operator="out"/>
<feColorMatrix type="matrix" values="0 0 0 0 0.445833 0 0 0 0 0.445833 0 0 0 0 0.445833 0 0 0 0.12 0"/>
<feBlend mode="normal" in2="BackgroundImageFix" result="effect1_dropShadow_1843_5436"/>
<feBlend mode="normal" in="SourceGraphic" in2="effect1_dropShadow_1843_5436" result="shape"/>
</filter>
<clipPath id="clip0_1843_5436">
<rect x="4" y="4" width="32" height="32" rx="5" fill="white"/>
</clipPath>
</defs>
</svg>
