<svg width="68" height="68" viewBox="0 0 68 68" fill="none" xmlns="http://www.w3.org/2000/svg">
<g filter="url(#filter0_d_2548_9250)">
<g clip-path="url(#clip0_2548_9250)">
<rect x="7" y="7" width="54" height="54" rx="8.4375" fill="white"/>
<path d="M28.6758 23.0633C31.5821 23.0633 32.5059 23.0544 34.6201 23.3558C35.7841 23.4609 37.0772 23.3752 37.5444 22.2416C38.7747 19.2639 40.3037 16.4244 42.5791 14.0826C44.3928 12.2164 46.7153 12.2358 48.5483 14.1241C50.9261 16.5765 52.4218 19.5901 53.771 22.6701C54.0918 23.4056 54.4484 23.7069 55.2281 23.6544C57.1533 23.4781 55.7194 23.6226 57.8445 23.3398C60.3328 23.0086 62.4064 22.7869 68.0623 23.3945C69.5802 23.4166 70.5728 25.0451 70.2355 26.5962C69.5692 29.6513 67.9711 32.2972 66.4505 34.9597C64.8579 37.7438 64.7777 37.7273 67.2578 39.7152C68.9885 41.1031 70.7635 42.4357 72.5386 43.7684C73.3016 44.3434 73.932 45.0208 74.5043 45.7839C76.7908 48.8252 75.2177 51.3412 72.5856 52.3558C69.6797 53.4756 66.7656 54.5898 63.7658 55.4331C62.5465 55.7759 61.9466 56.1768 62.3447 57.6781C63.1576 60.7304 63.5999 63.874 63.9953 67.0093C64.3686 69.9704 62.9115 72.8071 58.8749 71.7371C55.6013 70.869 52.8918 68.9917 50.163 67.1227C48.8027 66.1909 47.4369 65.262 46.1125 64.2749C45.4352 63.769 45.0868 64.2998 44.6389 64.5873C41.3847 66.6748 38.3794 69.152 34.8487 70.8137C33.8562 71.2809 32.8304 71.6404 31.7687 71.845C28.2934 72.514 26.8584 70.3907 27.0796 67.4102C27.3367 63.9763 28.0307 60.5867 28.8159 57.233C29.0454 56.2515 28.7717 55.8533 27.8621 55.6045C24.9452 54.8055 22.8697 54.1674 19.4137 52.785C17.6995 52.1684 15.9983 51.2803 15.625 49.3201C15.1992 47.0861 16.4932 45.4936 18.0553 44.2024C20.3805 42.2781 22.7748 40.4257 25.2327 38.6756C26.2723 37.9346 26.076 37.4038 25.5534 36.4831C23.737 33.2897 21.6772 30.2042 20.8616 26.527C20.6902 25.7557 20.8312 25.1059 21.2127 24.506C21.633 23.8479 22.2606 23.4083 23.0762 23.3558C24.8051 23.0633 26.1875 23.0633 28.6758 23.0633ZM55.6262 37.3706C55.7368 35.8444 55.394 34.4399 54.6724 33.1266C53.7572 31.465 52.4854 30.2015 50.4809 30.2125C48.3935 30.2263 47.3318 31.7055 46.295 33.3395C46.0572 33.7128 46.0849 34.1468 45.6729 34.0998C45.3246 34.0611 45.1891 33.7017 44.9016 33.3948C42.9855 30.2789 38.9738 30.3065 37.1629 33.4888C35.8026 35.8776 35.6284 38.4406 36.5408 41.0091C37.2873 43.1186 38.7029 44.548 41.0972 44.6476C43.5579 44.7526 44.8241 43.9785 45.8886 41.5067C46.3254 40.4893 46.5604 40.7934 47.0664 41.3989C49.0571 43.785 52.3997 43.937 54.3627 41.7224C55.4604 40.481 55.7341 38.9604 55.6262 37.3706Z" fill="#7BC4FF"/>
<path d="M46.9997 37.7026C46.9997 41.7569 44.476 45.0436 41.3629 45.0436C38.2497 45.0436 35.726 41.7569 35.726 37.7026C35.726 33.6483 38.2497 30.3616 41.3629 30.3616C44.476 30.3616 46.9997 33.6483 46.9997 37.7026Z" fill="white"/>
<path d="M56.4095 37.1781C56.4095 41.2324 53.8858 44.5191 50.7727 44.5191C47.6595 44.5191 45.1358 41.2324 45.1358 37.1781C45.1358 33.1238 47.6595 29.8371 50.7727 29.8371C53.8858 29.8371 56.4095 33.1238 56.4095 37.1781Z" fill="white"/>
<path d="M44.5734 37.855C44.5734 38.6185 43.9545 39.2374 43.191 39.2374C42.4275 39.2374 41.8086 38.6185 41.8086 37.855C41.8086 37.0916 42.4275 36.4726 43.191 36.4726C43.9545 36.4726 44.5734 37.0916 44.5734 37.855Z" fill="#3F3F3F"/>
<path d="M50.3795 37.3021C50.3795 38.0656 49.7606 38.6845 48.9971 38.6845C48.2336 38.6845 47.6147 38.0656 47.6147 37.3021C47.6147 36.5386 48.2336 35.9197 48.9971 35.9197C49.7606 35.9197 50.3795 36.5386 50.3795 37.3021Z" fill="#3F3F3F"/>
</g>
</g>
<defs>
<filter id="filter0_d_2548_9250" x="0.25" y="0.25" width="67.5" height="67.5" filterUnits="userSpaceOnUse" color-interpolation-filters="sRGB">
<feFlood flood-opacity="0" result="BackgroundImageFix"/>
<feColorMatrix in="SourceAlpha" type="matrix" values="0 0 0 0 0 0 0 0 0 0 0 0 0 0 0 0 0 0 127 0" result="hardAlpha"/>
<feOffset/>
<feGaussianBlur stdDeviation="3.375"/>
<feComposite in2="hardAlpha" operator="out"/>
<feColorMatrix type="matrix" values="0 0 0 0 0.445833 0 0 0 0 0.445833 0 0 0 0 0.445833 0 0 0 0.12 0"/>
<feBlend mode="normal" in2="BackgroundImageFix" result="effect1_dropShadow_2548_9250"/>
<feBlend mode="normal" in="SourceGraphic" in2="effect1_dropShadow_2548_9250" result="shape"/>
</filter>
<clipPath id="clip0_2548_9250">
<rect x="7" y="7" width="54" height="54" rx="8.4375" fill="white"/>
</clipPath>
</defs>
</svg>
