<svg width="20" height="21" viewBox="0 0 20 21" fill="none" xmlns="http://www.w3.org/2000/svg">
<path fill-rule="evenodd" clip-rule="evenodd" d="M3.93141 3.07679C4.95323 2.00101 6.64341 2.20256 7.48807 3.39721L8.5389 4.88345C9.21451 5.839 9.15744 7.16748 8.35113 8.01637L8.14708 8.23119L8.1453 8.23603C8.13452 8.26633 8.10725 8.36281 8.13408 8.54594C8.18971 8.92555 8.48275 9.69696 9.67246 10.9495C10.8659 12.206 11.5898 12.5021 11.9253 12.5566C12.07 12.5801 12.1457 12.5597 12.1698 12.5512L12.5103 12.1927C13.2385 11.4261 14.3738 11.275 15.2892 11.8019L16.8813 12.7183C18.242 13.5016 18.5587 15.4176 17.4713 16.5625L16.2875 17.8088C15.918 18.1978 15.4142 18.5298 14.7917 18.5912C13.2718 18.7413 9.75082 18.5459 6.05967 14.6598C2.61537 11.0336 1.96105 7.87948 1.87834 6.33846C1.83747 5.57707 2.17687 4.92399 2.62341 4.45387L3.93141 3.07679ZM6.46742 4.11885C6.04046 3.51497 5.27343 3.47894 4.83774 3.93765L3.52974 5.31473C3.25358 5.60547 3.10868 5.93871 3.12654 6.27147C3.19407 7.52965 3.73589 10.3982 6.96599 13.7989C10.3528 17.3646 13.473 17.4653 14.6689 17.3473C14.9053 17.3239 15.1486 17.1927 15.3811 16.9479L16.5649 15.7016C17.0756 15.164 16.9417 14.1954 16.2577 13.8017L14.6656 12.8853C14.2384 12.6394 13.7379 12.7154 13.4167 13.0535L13.0371 13.4531L12.5978 13.0358C13.0371 13.4531 13.036 13.4543 13.036 13.4543L13.0348 13.4556L13.0323 13.4581L13.027 13.4635L13.0151 13.4753C13.0065 13.4836 12.9966 13.4927 12.9854 13.5026C12.963 13.5222 12.9353 13.5446 12.902 13.5682C12.8352 13.6156 12.7463 13.6676 12.6338 13.712C12.4038 13.8027 12.1001 13.8514 11.7249 13.7904C10.9936 13.6717 10.0352 13.1464 8.76614 11.8104C7.49335 10.4704 7.00622 9.47058 6.89729 8.72716C6.84185 8.34876 6.88622 8.04577 6.96764 7.81696C7.00768 7.70444 7.05495 7.61472 7.09855 7.54659C7.12029 7.51261 7.14101 7.48416 7.15933 7.46102C7.16849 7.44944 7.17705 7.43919 7.18485 7.43023L7.19595 7.41774L7.20104 7.41221L7.20346 7.40962L7.20463 7.40837C7.20463 7.40837 7.20578 7.40716 7.64884 7.82797L7.20579 7.40715L7.4448 7.15551C7.81608 6.76463 7.87003 6.10264 7.51824 5.60509L6.46742 4.11885Z" fill="#2979FF"/>
<path d="M11.0499 2.06673C11.1051 1.72599 11.4272 1.49484 11.7679 1.55001C11.789 1.55404 11.8569 1.56673 11.8924 1.57465C11.9635 1.59048 12.0627 1.61486 12.1864 1.65089C12.4337 1.72292 12.7792 1.84159 13.1939 2.03171C14.0241 2.41233 15.129 3.07817 16.2755 4.22467C17.422 5.37117 18.0878 6.47602 18.4684 7.30625C18.6586 7.72093 18.7772 8.06643 18.8493 8.31375C18.8853 8.43742 18.9097 8.53661 18.9255 8.60772C18.9334 8.64327 18.9392 8.67182 18.9432 8.69291L18.948 8.71891C19.0032 9.05965 18.7742 9.39508 18.4334 9.45025C18.0936 9.50525 17.7736 9.27523 17.717 8.93608C17.7153 8.92698 17.7105 8.90251 17.7054 8.87944C17.6951 8.83329 17.6773 8.7601 17.6491 8.66331C17.5927 8.46969 17.4948 8.18192 17.3322 7.82719C17.0073 7.1186 16.4231 6.14011 15.3916 5.10856C14.36 4.077 13.3815 3.49284 12.673 3.16798C12.3182 3.00535 12.0305 2.90741 11.8368 2.85101C11.74 2.82282 11.6184 2.7949 11.5722 2.78462C11.2331 2.7281 10.9949 2.4065 11.0499 2.06673Z" fill="#2979FF"/>
<path fill-rule="evenodd" clip-rule="evenodd" d="M11.2381 4.94125C11.3329 4.60936 11.6788 4.41717 12.0107 4.512L11.839 5.11295C12.0107 4.512 12.011 4.51209 12.0113 4.51217L12.0119 4.51235L12.0132 4.51271L12.016 4.51353L12.0224 4.51545L12.0389 4.52059C12.0515 4.52461 12.0672 4.52984 12.0859 4.53648C12.1233 4.54976 12.1728 4.56865 12.2335 4.59465C12.3549 4.64668 12.5208 4.72703 12.7245 4.84762C13.1324 5.08903 13.6892 5.49001 14.3434 6.14415C14.9975 6.79829 15.3985 7.35512 15.6399 7.763C15.7605 7.96676 15.8408 8.13265 15.8929 8.25405C15.9189 8.31473 15.9378 8.36419 15.951 8.40162C15.9577 8.42033 15.9629 8.43602 15.9669 8.44858L15.9721 8.46507L15.974 8.47153L15.9748 8.47431L15.9752 8.47559L15.9753 8.4762C15.9754 8.47649 15.9755 8.47679 15.3746 8.64849L15.9755 8.47679C16.0703 8.80868 15.8782 9.15461 15.5463 9.24944C15.2172 9.34346 14.8743 9.15533 14.7761 8.82861L14.773 8.81963C14.7686 8.80711 14.7594 8.78246 14.7439 8.74645C14.7131 8.67451 14.6572 8.55681 14.5642 8.39965C14.3784 8.0857 14.0428 7.61133 13.4595 7.02803C12.8762 6.44474 12.4018 6.10915 12.0879 5.92335C11.9307 5.83033 11.813 5.77442 11.7411 5.74358C11.7051 5.72815 11.6804 5.71896 11.6679 5.71452L11.6589 5.71144C11.3322 5.6132 11.1441 5.27033 11.2381 4.94125Z" fill="#2979FF"/>
</svg>
