<svg width="16" height="15" viewBox="0 0 16 15" fill="none" xmlns="http://www.w3.org/2000/svg">
<path d="M8 15C3.85775 15 0.5 11.6423 0.5 7.5C0.5 3.35775 3.85775 0 8 0C12.1423 0 15.5 3.35775 15.5 7.5C15.5 11.6423 12.1423 15 8 15ZM8 13.5C9.5913 13.5 11.1174 12.8679 12.2426 11.7426C13.3679 10.6174 14 9.0913 14 7.5C14 5.9087 13.3679 4.38258 12.2426 3.25736C11.1174 2.13214 9.5913 1.5 8 1.5C6.4087 1.5 4.88258 2.13214 3.75736 3.25736C2.63214 4.38258 2 5.9087 2 7.5C2 9.0913 2.63214 10.6174 3.75736 11.7426C4.88258 12.8679 6.4087 13.5 8 13.5ZM8.75 8.25V11.25C8.75 11.4489 8.67098 11.6397 8.53033 11.7803C8.38968 11.921 8.19891 12 8 12C7.80109 12 7.61032 11.921 7.46967 11.7803C7.32902 11.6397 7.25 11.4489 7.25 11.25V8.25H4.25C4.05109 8.25 3.86032 8.17098 3.71967 8.03033C3.57902 7.88968 3.5 7.69891 3.5 7.5C3.5 7.30109 3.57902 7.11032 3.71967 6.96967C3.86032 6.82902 4.05109 6.75 4.25 6.75H7.25V3.75C7.25 3.55109 7.32902 3.36032 7.46967 3.21967C7.61032 3.07902 7.80109 3 8 3C8.19891 3 8.38968 3.07902 8.53033 3.21967C8.67098 3.36032 8.75 3.55109 8.75 3.75V6.75H11.75C11.9489 6.75 12.1397 6.82902 12.2803 6.96967C12.421 7.11032 12.5 7.30109 12.5 7.5C12.5 7.69891 12.421 7.88968 12.2803 8.03033C12.1397 8.17098 11.9489 8.25 11.75 8.25H8.75Z" fill="#5C99FF"/>
</svg>
