<svg width="16" height="15" viewBox="0 0 16 15" fill="none" xmlns="http://www.w3.org/2000/svg">
<path d="M7.25 5.25L9.5 7.5L7.25 9.75M1.25 7.5C1.25 8.38642 1.42459 9.26417 1.76381 10.0831C2.10303 10.9021 2.60023 11.6462 3.22703 12.273C3.85382 12.8998 4.59794 13.397 5.41689 13.7362C6.23583 14.0754 7.11358 14.25 8 14.25C8.88642 14.25 9.76417 14.0754 10.5831 13.7362C11.4021 13.397 12.1462 12.8998 12.773 12.273C13.3998 11.6462 13.897 10.9021 14.2362 10.0831C14.5754 9.26417 14.75 8.38642 14.75 7.5C14.75 5.70979 14.0388 3.9929 12.773 2.72703C11.5071 1.46116 9.79021 0.75 8 0.75C6.20979 0.75 4.4929 1.46116 3.22703 2.72703C1.96116 3.9929 1.25 5.70979 1.25 7.5Z" stroke="white" stroke-width="1.5" stroke-linecap="round" stroke-linejoin="round"/>
</svg>
