<svg width="40" height="24" viewBox="0 0 40 24" fill="none" xmlns="http://www.w3.org/2000/svg">
<rect width="40" height="24" rx="4" fill="#FFF6F4"/>
<path d="M18.6875 6.44922V11.9102H17.3867V6.44922H18.6875ZM18.6875 12.3555V15.0859H12.8984V15.918H19.0273V16.9492H11.6094V14.1367H17.3984V13.375H11.5859V12.3555H18.6875ZM16.0625 7.12891V8.13672H15.1133V10.4453C15.5938 10.4043 16.0625 10.3574 16.5078 10.3047L16.5664 11.2422C14.457 11.5703 12.0195 11.6406 10.168 11.6406L10.0273 10.6094C10.4082 10.6094 10.8125 10.6035 11.2344 10.5977V8.13672H10.3086V7.12891H16.0625ZM12.4883 10.5742C12.9453 10.5625 13.4082 10.5449 13.8711 10.5156V8.13672H12.4883V10.5742ZM25.5622 7.32812C25.5622 8.66406 27.0505 10.0117 29.3122 10.3047L28.7966 11.3594C26.9977 11.0898 25.568 10.2051 24.8825 9.00391C24.1852 10.2051 22.7614 11.0898 20.9802 11.3594L20.4645 10.3047C22.7028 10.0117 24.1911 8.66406 24.1911 7.32812V6.78906H25.5622V7.32812ZM29.6989 12.2734V13.3516H25.4919V17.043H24.2028V13.3516H20.0427V12.2734H29.6989Z" fill="#FF7664"/>
</svg>
