<svg width="32" height="32" viewBox="0 0 32 32" fill="none" xmlns="http://www.w3.org/2000/svg">
<rect x="0.5" y="0.5" width="31" height="31" rx="15.5" fill="#F5F9FF"/>
<rect x="0.5" y="0.5" width="31" height="31" rx="15.5" stroke="#E6EFFF"/>
<g clip-path="url(#clip0_1843_6893)">
<path d="M15.2873 9.83357C15.1442 9.30708 14.8319 8.8423 14.3984 8.51095C13.965 8.17959 13.4346 8.00006 12.889 8.00006C12.3434 8.00006 11.813 8.17959 11.3796 8.51095C10.9461 8.8423 10.6338 9.30708 10.4907 9.83357H8V11.1669H10.4907C10.6338 11.6934 10.9461 12.1582 11.3796 12.4895C11.813 12.8209 12.3434 13.0004 12.889 13.0004C13.4346 13.0004 13.965 12.8209 14.3984 12.4895C14.8319 12.1582 15.1442 11.6934 15.2873 11.1669H24V9.83357H15.2873ZM12.8887 11.6669C12.6579 11.6669 12.4324 11.5985 12.2405 11.4703C12.0486 11.3421 11.8991 11.1599 11.8108 10.9467C11.7225 10.7335 11.6994 10.4989 11.7444 10.2726C11.7894 10.0463 11.9005 9.83844 12.0637 9.67528C12.2269 9.51211 12.4348 9.401 12.6611 9.35598C12.8874 9.31097 13.122 9.33407 13.3351 9.42237C13.5483 9.51068 13.7305 9.66021 13.8587 9.85207C13.9869 10.0439 14.0553 10.2695 14.0553 10.5002C14.0548 10.8095 13.9317 11.1059 13.713 11.3246C13.4944 11.5433 13.1979 11.6664 12.8887 11.6669Z" fill="#5C99FF"/>
<path d="M19.1113 13.5C18.5663 13.502 18.0369 13.6822 17.6039 14.0132C17.1709 14.3443 16.8581 14.8079 16.7133 15.3333H8V16.6667H16.7133C16.8562 17.1933 17.1684 17.6582 17.6018 17.9897C18.0352 18.3212 18.5657 18.5008 19.1113 18.5008C19.657 18.5008 20.1874 18.3212 20.6208 17.9897C21.0542 17.6582 21.3665 17.1933 21.5093 16.6667H24V15.3333H21.5093C21.3645 14.8079 21.0518 14.3443 20.6188 14.0132C20.1858 13.6822 19.6564 13.502 19.1113 13.5ZM19.1113 17.1667C18.8806 17.1667 18.655 17.0982 18.4632 16.97C18.2713 16.8419 18.1218 16.6596 18.0335 16.4465C17.9452 16.2333 17.9221 15.9987 17.9671 15.7724C18.0121 15.5461 18.1232 15.3382 18.2864 15.175C18.4495 15.0119 18.6574 14.9008 18.8837 14.8558C19.11 14.8107 19.3446 14.8338 19.5578 14.9221C19.771 15.0104 19.9532 15.16 20.0814 15.3518C20.2096 15.5437 20.278 15.7693 20.278 16C20.2776 16.3093 20.1546 16.6059 19.9359 16.8246C19.7172 17.0433 19.4206 17.1663 19.1113 17.1667Z" fill="#5C99FF"/>
<path d="M12.8887 19C12.3433 19.0015 11.8134 19.1816 11.38 19.5126C10.9466 19.8437 10.6336 20.3076 10.4887 20.8333H8V22.1667H10.4907C10.6338 22.6931 10.9461 23.1579 11.3796 23.4893C11.813 23.8206 12.3434 24.0002 12.889 24.0002C13.4346 24.0002 13.965 23.8206 14.3984 23.4893C14.8319 23.1579 15.1442 22.6931 15.2873 22.1667H24V20.8333H15.2873C15.1425 20.3078 14.8296 19.8441 14.3965 19.513C13.9634 19.182 13.4338 19.0018 12.8887 19ZM12.8887 22.6667C12.6579 22.6667 12.4324 22.5982 12.2405 22.47C12.0486 22.3418 11.8991 22.1596 11.8108 21.9465C11.7225 21.7333 11.6994 21.4987 11.7444 21.2724C11.7894 21.0461 11.9005 20.8382 12.0637 20.675C12.2269 20.5119 12.4348 20.4008 12.6611 20.3557C12.8874 20.3107 13.122 20.3338 13.3351 20.4221C13.5483 20.5104 13.7305 20.66 13.8587 20.8518C13.9869 21.0437 14.0553 21.2693 14.0553 21.5C14.0548 21.8093 13.9317 22.1057 13.713 22.3244C13.4944 22.543 13.1979 22.6661 12.8887 22.6667Z" fill="#5C99FF"/>
</g>
<defs>
<clipPath id="clip0_1843_6893">
<rect width="16" height="16" fill="white" transform="translate(8 8)"/>
</clipPath>
</defs>
</svg>
