<svg width="100" height="100" viewBox="0 0 100 100" fill="none" xmlns="http://www.w3.org/2000/svg">
<rect width="100" height="100" rx="24" fill="#FAFAFA"/>
<path fill-rule="evenodd" clip-rule="evenodd" d="M43.25 28.25V30.8334C40.4835 31.2494 38.1384 33.188 37.2441 35.9045L36.0603 39.5H34.5C33.1193 39.5 32 40.6193 32 42V74.5C32 75.8807 33.1193 77 34.5 77H64.5C65.8807 77 67 75.8807 67 74.5V42C67 40.6193 65.8807 39.5 64.5 39.5H62.9396L61.756 35.9048C60.8617 33.1881 58.5166 31.2494 55.75 30.8334V28.25C55.75 24.7983 52.9519 22 49.5 22C46.0481 22 43.25 24.7983 43.25 28.25ZM49.5 27C48.8096 27 48.25 27.5596 48.25 28.25V30.75H50.75V28.25C50.75 27.5596 50.1904 27 49.5 27ZM54.6322 35.75H44.3679C43.2884 35.75 42.3308 36.4429 41.9933 37.4682L41.3243 39.5H57.6756L57.0068 37.4682C56.6692 36.4429 55.7117 35.75 54.6322 35.75ZM45.125 52C45.125 50.6193 44.0057 49.5 42.625 49.5C41.2443 49.5 40.125 50.6193 40.125 52V64.5C40.125 65.8807 41.2443 67 42.625 67C44.0057 67 45.125 65.8807 45.125 64.5V52Z" fill="#28BD7B"/>
<path d="M57 50.5C56.1716 50.5 55.5 51.1716 55.5 52C55.5 52.8284 56.1716 53.5 57 53.5L57 50.5ZM57 53.5L67 53.5L67 50.5L57 50.5L57 53.5Z" fill="#008F5D"/>
<path d="M57 58.5C56.1716 58.5 55.5 59.1716 55.5 60C55.5 60.8284 56.1716 61.5 57 61.5L57 58.5ZM57 61.5L67 61.5L67 58.5L57 58.5L57 61.5Z" fill="#008F5D"/>
</svg>
