<svg width="20" height="20" viewBox="0 0 20 20" fill="none" xmlns="http://www.w3.org/2000/svg">
<g clip-path="url(#clip0_1843_5482)">
<path fill-rule="evenodd" clip-rule="evenodd" d="M20.001 10.0005C20.001 15.5233 15.5238 20.0005 10.001 20.0005C4.47813 20.0005 0.000976562 15.5233 0.000976562 10.0005C0.000976562 4.47765 4.47813 0.000488281 10.001 0.000488281C15.5238 0.000488281 20.001 4.47765 20.001 10.0005ZM10.001 4.64335C10.5927 4.64335 11.0724 5.12305 11.0724 5.71477V8.92906H14.2867C14.8784 8.92906 15.3581 9.40876 15.3581 10.0005C15.3581 10.5922 14.8784 11.0719 14.2867 11.0719H11.0724V14.2862C11.0724 14.8779 10.5927 15.3576 10.001 15.3576C9.40925 15.3576 8.92955 14.8779 8.92955 14.2862V11.0719H5.71526C5.12353 11.0719 4.64383 10.5922 4.64383 10.0005C4.64383 9.40876 5.12353 8.92906 5.71526 8.92906H8.92955V5.71477C8.92955 5.12305 9.40925 4.64335 10.001 4.64335Z" fill="#5C99FF"/>
</g>
<defs>
<clipPath id="clip0_1843_5482">
<rect width="20" height="20" fill="white"/>
</clipPath>
</defs>
</svg>
