<svg width="24" height="24" viewBox="0 0 24 24" fill="none" xmlns="http://www.w3.org/2000/svg">
<rect width="24" height="24" rx="4" fill="#22B27F"/>
<path fill-rule="evenodd" clip-rule="evenodd" d="M6.70288 6.55536C5.87445 6.55536 5.20288 7.22693 5.20288 8.05536V14.681C5.20288 15.5094 5.87445 16.181 6.70288 16.181C10.2706 16.181 13.6672 16.181 17.2971 16.181C18.1255 16.181 18.7971 15.5094 18.7971 14.681V11.4935C18.7971 11.4174 18.7797 11.3424 18.7464 11.274L17.354 8.42318C17.1024 7.90814 16.5793 7.58148 16.0061 7.58148H14.5829C14.3845 6.98528 13.8221 6.55536 13.1593 6.55536H6.70288Z" fill="white"/>
<path fill-rule="evenodd" clip-rule="evenodd" d="M18.7971 12.0919H15.1745C14.8458 12.0919 14.5793 11.8254 14.5793 11.4968V7.57111C14.5805 7.57457 14.5817 7.57803 14.5828 7.5815H16.0061C16.5793 7.5815 17.1024 7.90816 17.3539 8.4232L18.7463 11.274C18.7797 11.3424 18.7971 11.4174 18.7971 11.4935V12.0919Z" fill="#FF7260"/>
<path fill-rule="evenodd" clip-rule="evenodd" d="M8.89865 14.1591C7.85154 14.1591 7.00269 15.0079 7.00269 16.055C7.00269 17.1021 7.85154 17.951 8.89865 17.951C9.94576 17.951 10.7946 17.1021 10.7946 16.055C10.7946 15.0079 9.94576 14.1591 8.89865 14.1591Z" fill="#FF7260"/>
<path fill-rule="evenodd" clip-rule="evenodd" d="M15.2356 14.1591C14.1885 14.1591 13.3396 15.0079 13.3396 16.055C13.3396 17.1021 14.1885 17.951 15.2356 17.951C16.2827 17.951 17.1315 17.1021 17.1315 16.055C17.1315 15.0079 16.2827 14.1591 15.2356 14.1591Z" fill="#FF7260"/>
<path fill-rule="evenodd" clip-rule="evenodd" d="M10.5667 9.13879C10.5667 8.79362 10.2868 8.51379 9.94165 8.51379C9.59647 8.51379 9.31665 8.79362 9.31665 9.13879V10.1388H8.31665C7.97147 10.1388 7.69165 10.4186 7.69165 10.7638C7.69165 11.109 7.97147 11.3888 8.31665 11.3888H9.31665V12.3888C9.31665 12.734 9.59647 13.0138 9.94165 13.0138C10.2868 13.0138 10.5667 12.734 10.5667 12.3888V11.3888H11.5667C11.9118 11.3888 12.1917 11.109 12.1917 10.7638C12.1917 10.4186 11.9118 10.1388 11.5667 10.1388H10.5667V9.13879Z" fill="#FF7260"/>
</svg>
