<svg width="24" height="24" viewBox="0 0 24 24" fill="none" xmlns="http://www.w3.org/2000/svg">
<rect width="24" height="24" rx="4" fill="#22B27F"/>
<g clip-path="url(#clip0_1843_5503)">
<path fill-rule="evenodd" clip-rule="evenodd" d="M14.4696 5.39323C14.8601 5.00271 15.4932 5.00271 15.8838 5.39323L18.6067 8.11615C18.9972 8.50667 18.9972 9.13984 18.6067 9.53036C18.2162 9.92089 17.583 9.92089 17.1925 9.53036L16.5381 8.876L14.5223 10.8918C14.1318 11.2823 13.4986 11.2823 13.1081 10.8918C12.7175 10.5013 12.7175 9.86813 13.1081 9.47761L15.1239 7.46179L14.4696 6.80745C14.079 6.41692 14.079 5.78376 14.4696 5.39323ZM9.12193 16.2923C9.51245 15.9017 9.51245 15.2686 9.12193 14.8781C8.7314 14.4875 8.09824 14.4875 7.70771 14.8781L5.39323 17.1925C5.00271 17.5831 5.00271 18.2162 5.39323 18.6067C5.78376 18.9973 6.41692 18.9973 6.80745 18.6067L9.12193 16.2923Z" fill="#FF7260"/>
<path fill-rule="evenodd" clip-rule="evenodd" d="M11.3456 6.30089C10.955 5.91036 10.3219 5.91036 9.93135 6.30089C9.54083 6.69141 9.54083 7.32458 9.93135 7.7151L10.9322 8.71598L7.49292 12.0877L7.48959 12.091C7.27432 12.306 7.10355 12.5614 6.98703 12.8424C6.87052 13.1235 6.81055 13.4248 6.81055 13.7291C6.81055 14.0333 6.87052 14.3346 6.98703 14.6157C7.10351 14.8966 7.27422 15.1519 7.48939 15.3669L8.63282 16.5103C8.84784 16.7256 9.10319 16.8964 9.38426 17.0129C9.66533 17.1294 9.96661 17.1894 10.2709 17.1894C10.5751 17.1894 10.8764 17.1294 11.1575 17.0129C11.4386 16.8964 11.6939 16.7256 11.9089 16.5103L11.9122 16.507L15.284 13.0677L16.2848 14.0686C16.6753 14.4591 17.3085 14.4591 17.699 14.0686C18.0896 13.678 18.0896 13.0449 17.699 12.6544L11.3456 6.30089Z" fill="white"/>
</g>
<defs>
<clipPath id="clip0_1843_5503">
<rect width="14" height="14" fill="white" transform="translate(5 5)"/>
</clipPath>
</defs>
</svg>
