<svg width="24" height="24" viewBox="0 0 24 24" fill="none" xmlns="http://www.w3.org/2000/svg">
<rect width="24" height="24" rx="4" fill="#22B27F"/>
<g clip-path="url(#clip0_1843_5516)">
<path fill-rule="evenodd" clip-rule="evenodd" d="M10.6176 8.20344L9.91055 7.49634L9.20344 8.20344L6.48522 10.9217C5.61092 11.796 5.11975 12.9818 5.11975 14.2182C5.11975 15.4546 5.61092 16.6404 6.48522 17.5147C7.35952 18.389 8.54532 18.8802 9.78176 18.8802C11.0182 18.8802 12.204 18.389 13.0783 17.5147L15.7965 14.7965L16.5036 14.0894L15.7965 13.3823L10.6176 8.20344Z" fill="white"/>
<path fill-rule="evenodd" clip-rule="evenodd" d="M14.2183 5.11975C12.9818 5.11975 11.796 5.61092 10.9217 6.48522L9.20351 8.20344L8.4964 8.91055L9.20351 9.61765L14.3824 14.7965L15.0895 15.5036L15.7966 14.7965L17.5148 13.0783C18.3891 12.204 18.8803 11.0182 18.8803 9.78176C18.8803 8.54532 18.3891 7.35952 17.5148 6.48522C16.6405 5.61092 15.4547 5.11975 14.2183 5.11975Z" fill="#FF7260"/>
</g>
<defs>
<clipPath id="clip0_1843_5516">
<rect width="14" height="14" fill="white" transform="translate(5 5)"/>
</clipPath>
</defs>
</svg>
