<svg width="24" height="24" viewBox="0 0 24 24" fill="none" xmlns="http://www.w3.org/2000/svg">
<g filter="url(#filter0_d_1843_7286)">
<rect x="3" y="3" width="18" height="18" rx="9" fill="white"/>
<rect x="3.375" y="3.375" width="17.25" height="17.25" rx="8.625" stroke="#8FB9FF" stroke-width="0.75"/>
<path d="M16.2777 12.6155V13.1155H15.8427C15.4727 13.1155 15.1727 13.4155 15.1727 13.7905V13.9405C15.1727 14.3155 14.8727 14.6155 14.4977 14.6155C14.1277 14.6155 13.8277 14.3155 13.8277 13.9405V13.7905C13.8277 13.4155 13.5227 13.1155 13.1527 13.1155C12.7827 13.1155 12.4827 13.4155 12.4827 13.7905V13.9405C12.4827 14.3155 12.1777 14.6155 11.8077 14.6155C11.4377 14.6155 11.1327 14.3155 11.1327 13.9405V13.7905C11.1327 13.4155 10.8327 13.1155 10.4627 13.1155C10.0927 13.1155 9.7877 13.4155 9.7877 13.7905V13.9405C9.7877 14.3155 9.4877 14.6155 9.1177 14.6155C8.7427 14.6155 8.4427 14.3155 8.4427 13.9405V13.7805C8.4427 13.4105 8.1477 13.1105 7.7827 13.1055H7.3877V12.6155C7.3877 11.9255 7.9077 11.3405 8.6127 11.1705C8.7527 11.1355 8.8977 11.1155 9.0527 11.1155H14.6127C14.7677 11.1155 14.9127 11.1355 15.0527 11.1705C15.7577 11.3405 16.2777 11.9255 16.2777 12.6155Z" fill="#FF9191"/>
<path opacity="0.4" d="M15.0523 9.70097V11.171C14.9123 11.136 14.7673 11.116 14.6123 11.116H9.0523C8.8973 11.116 8.7523 11.136 8.6123 11.171V9.70097C8.6123 9.10097 9.1523 8.61597 9.8223 8.61597H13.8423C14.5123 8.61597 15.0523 9.10097 15.0523 9.70097Z" fill="#FF9B9B"/>
<path d="M10.208 7.89049V8.62049H9.82301C9.69301 8.62049 9.57301 8.63549 9.45801 8.66549V7.89049C9.45801 7.71549 9.62801 7.56549 9.83301 7.56549C10.038 7.56549 10.208 7.71549 10.208 7.89049Z" fill="#FF8282"/>
<path d="M14.207 7.78027V8.66527C14.092 8.63027 13.972 8.61527 13.842 8.61527H13.457V7.78027C13.457 7.57527 13.627 7.40527 13.832 7.40527C14.037 7.40527 14.207 7.57527 14.207 7.78027Z" fill="#FF8282"/>
<path d="M12.207 7.52566V8.61566H11.457V7.52566C11.457 7.30066 11.627 7.11566 11.832 7.11566C12.037 7.11566 12.207 7.30066 12.207 7.52566Z" fill="#FF8282"/>
<path opacity="0.4" d="M16.457 16.3652H16.277V13.1152H15.842C15.472 13.1152 15.172 13.4152 15.172 13.7902V13.9402C15.172 14.3152 14.872 14.6152 14.497 14.6152C14.127 14.6152 13.827 14.3152 13.827 13.9402V13.7902C13.827 13.4152 13.522 13.1152 13.152 13.1152C12.782 13.1152 12.482 13.4152 12.482 13.7902V13.9402C12.482 14.3152 12.177 14.6152 11.807 14.6152C11.437 14.6152 11.132 14.3152 11.132 13.9402V13.7902C11.132 13.4152 10.832 13.1152 10.462 13.1152C10.092 13.1152 9.78703 13.4152 9.78703 13.7902V13.9402C9.78703 14.3152 9.48703 14.6152 9.11703 14.6152C8.74203 14.6152 8.44203 14.3152 8.44203 13.9402V13.7802C8.44203 13.4102 8.14703 13.1102 7.78203 13.1052H7.38703V16.3652H7.20703C7.00203 16.3652 6.83203 16.5352 6.83203 16.7402C6.83203 16.9452 7.00203 17.1152 7.20703 17.1152H7.38703H16.277H16.457C16.662 17.1152 16.832 16.9452 16.832 16.7402C16.832 16.5352 16.662 16.3652 16.457 16.3652Z" fill="#FF9B9B"/>
</g>
<defs>
<filter id="filter0_d_1843_7286" x="0" y="0" width="24" height="24" filterUnits="userSpaceOnUse" color-interpolation-filters="sRGB">
<feFlood flood-opacity="0" result="BackgroundImageFix"/>
<feColorMatrix in="SourceAlpha" type="matrix" values="0 0 0 0 0 0 0 0 0 0 0 0 0 0 0 0 0 0 127 0" result="hardAlpha"/>
<feOffset/>
<feGaussianBlur stdDeviation="1.5"/>
<feComposite in2="hardAlpha" operator="out"/>
<feColorMatrix type="matrix" values="0 0 0 0 0.445833 0 0 0 0 0.445833 0 0 0 0 0.445833 0 0 0 0.1 0"/>
<feBlend mode="normal" in2="BackgroundImageFix" result="effect1_dropShadow_1843_7286"/>
<feBlend mode="normal" in="SourceGraphic" in2="effect1_dropShadow_1843_7286" result="shape"/>
</filter>
</defs>
</svg>
