<svg width="16" height="17" viewBox="0 0 16 17" fill="none" xmlns="http://www.w3.org/2000/svg">
<g clip-path="url(#clip0_1843_7336)">
<path d="M1.60059 3.57073C1.60059 2.62395 2.36809 1.85645 3.31487 1.85645H13.0292C13.9759 1.85645 14.7434 2.62395 14.7434 3.57073V14.9993C14.7434 15.946 13.9759 16.7136 13.0292 16.7136H3.31487C2.36809 16.7136 1.60059 15.946 1.60059 14.9993V3.57073Z" fill="#8FB9FF"/>
<path fill-rule="evenodd" clip-rule="evenodd" d="M5.31613 1.85672C5.31613 1.22554 5.82781 0.713867 6.45898 0.713867H9.88756C10.5187 0.713867 11.0304 1.22554 11.0304 1.85672V2.42815C11.0304 3.05934 10.5187 3.57101 9.88756 3.57101H6.45898C5.82781 3.57101 5.31613 3.05934 5.31613 2.42815V1.85672ZM8.17327 6.71499C8.64665 6.71499 9.03041 7.09874 9.03041 7.57213V9.57213H11.0304C11.5038 9.57213 11.8876 9.95588 11.8876 10.4293C11.8876 10.9027 11.5038 11.2864 11.0304 11.2864H9.03041V13.2864C9.03041 13.7598 8.64665 14.1436 8.17327 14.1436C7.69989 14.1436 7.31613 13.7598 7.31613 13.2864V11.2864H5.31613C4.84274 11.2864 4.45898 10.9027 4.45898 10.4293C4.45898 9.95588 4.84274 9.57213 5.31613 9.57213H7.31613V7.57213C7.31613 7.09874 7.69989 6.71499 8.17327 6.71499Z" fill="#00358F"/>
</g>
<defs>
<clipPath id="clip0_1843_7336">
<rect width="16" height="16" fill="white" transform="translate(0 0.714355)"/>
</clipPath>
</defs>
</svg>
