<svg width="40" height="40" viewBox="0 0 40 40" fill="none" xmlns="http://www.w3.org/2000/svg">
<g clip-path="url(#clip0_2972_17094)">
<path fill-rule="evenodd" clip-rule="evenodd" d="M34.1421 5.85787C41.9526 13.6684 41.9526 26.3316 34.1421 34.1421C26.3316 41.9526 13.6684 41.9526 5.85786 34.1421C-1.95262 26.3317 -1.95262 13.6683 5.85786 5.85787C13.6684 -1.95263 26.3316 -1.95261 34.1421 5.85787ZM12.4238 12.4239C13.2607 11.587 14.6175 11.587 15.4543 12.4239L20 16.9695L24.5457 12.4239C25.3825 11.587 26.7393 11.587 27.5761 12.4239C28.413 13.2607 28.4129 14.6175 27.5761 15.4543L23.0305 20L27.5761 24.5457C28.4129 25.3825 28.413 26.7393 27.5761 27.5761C26.7393 28.413 25.3825 28.413 24.5457 27.5761L20 23.0305L15.4543 27.5761C14.6175 28.413 13.2607 28.413 12.4238 27.5761C11.587 26.7393 11.587 25.3825 12.4238 24.5457L16.9695 20L12.4238 15.4543C11.587 14.6175 11.587 13.2607 12.4238 12.4239Z" fill="white"/>
</g>
<defs>
<clipPath id="clip0_2972_17094">
<rect width="40" height="40" fill="white"/>
</clipPath>
</defs>
</svg>
