<svg width="40" height="24" viewBox="0 0 40 24" fill="none" xmlns="http://www.w3.org/2000/svg">
<rect width="40" height="24" rx="4" fill="#ECFAEB"/>
<path d="M13.707 8.32422C13.707 9.73047 14.5508 11.1016 16.1914 11.6641L15.4766 12.6836C14.334 12.25 13.5137 11.4238 13.0742 10.3867C12.6113 11.5469 11.75 12.4668 10.5078 12.9297L9.81641 11.8984C11.5156 11.3242 12.3828 9.85938 12.3945 8.3125V7.10547H13.707V8.32422ZM18.7227 6.46094V14.3242H17.4219V9.85938H15.3125V8.79297H17.4219V6.46094H18.7227ZM18.957 15.7773V16.832H11.7383V13.4688H13.0625V15.7773H18.957ZM24.6012 7.1875V8.23047H21.695V9.26172H24.4958V10.2578H21.695V11.3711C22.9899 11.3594 23.8864 11.3066 24.9177 11.1133L25.0583 12.168C23.8161 12.4023 22.7848 12.4375 21.1442 12.4375H20.4411V7.1875H24.6012ZM29.1012 6.46094V12.9062H27.8591V10.1523H26.7575V12.8242H25.5387V6.66016H26.7575V9.10938H27.8591V6.46094H29.1012ZM29.1012 13.375V17.043H27.8005V14.4297H21.8473V13.375H29.1012Z" fill="#5EBE15"/>
</svg>
