<svg width="26" height="26" viewBox="0 0 26 26" fill="none" xmlns="http://www.w3.org/2000/svg">
<g opacity="0.5">
<path d="M19.0458 9.98957L16.01 6.95377C15.1772 6.12098 14.7608 5.70459 14.2873 5.53225C13.7852 5.34948 13.2347 5.34948 12.7325 5.53225C12.259 5.70459 11.8426 6.12098 11.0099 6.95377L6.27758 11.686C4.05852 13.9051 4.05852 17.5029 6.27758 19.722C8.49664 21.941 12.0945 21.941 14.3135 19.722L19.0458 14.9897C19.8786 14.1569 20.295 13.7405 20.4673 13.267C20.6501 12.7649 20.6501 12.2144 20.4673 11.7123C20.295 11.2388 19.8786 10.8224 19.0458 9.98957Z" fill="#8FB9FF"/>
<path fill-rule="evenodd" clip-rule="evenodd" d="M17.7454 3.86772C18.069 3.54409 18.5937 3.54409 18.9174 3.86772L22.1317 7.0821C22.4554 7.40573 22.4554 7.93043 22.1317 8.25406C21.8081 8.57769 21.2834 8.57769 20.9598 8.25406L17.7454 5.03969C17.4218 4.71606 17.4218 4.19135 17.7454 3.86772Z" fill="#8FB9FF"/>
</g>
<path d="M18.9696 15.0682L10.9337 7.03223L9.76172 8.20419L17.7977 16.2401L18.9696 15.0682Z" fill="#2979FF"/>
<path d="M5.73514 19.0934C5.89849 19.3127 6.07971 19.5228 6.27878 19.7219C6.47779 19.9209 6.68788 20.1021 6.90708 20.2654L5.03971 22.1326C4.71609 22.4563 4.19138 22.4563 3.86774 22.1327C3.5441 21.8091 3.54408 21.2844 3.8677 20.9607L5.73514 19.0934Z" fill="#2979FF"/>
<path d="M18.1153 9.05769L16.9434 7.88572L18.768 6.06104L19.94 7.233L18.1153 9.05769Z" fill="#2979FF"/>
<path d="M16.5063 17.529C16.5063 17.529 16.5063 17.529 16.5063 17.529L13.3181 14.3409C12.9945 14.0172 12.4698 14.0172 12.1462 14.3409C11.8225 14.6645 11.8225 15.1892 12.1462 15.5128L15.3343 18.701C15.3343 18.701 15.3343 18.701 15.3343 18.701L16.5063 17.529Z" fill="#2979FF"/>
<path d="M14.6982 19.3371C14.6982 19.3371 14.6982 19.3371 14.6982 19.3371L12.8795 17.5185C12.5559 17.1948 12.0312 17.1948 11.7076 17.5185C11.3839 17.8421 11.3839 18.3668 11.7076 18.6904L13.4492 20.4321C13.7542 20.2281 14.0438 19.9915 14.3131 19.7222L14.6982 19.3371Z" fill="#2979FF"/>
</svg>
