<svg width="68" height="68" viewBox="0 0 68 68" fill="none" xmlns="http://www.w3.org/2000/svg">
<g filter="url(#filter0_d_1843_7307)">
<rect x="14" y="14" width="40" height="40" rx="20" fill="white"/>
<g opacity="0.5">
<path d="M40.0468 30.9896L37.011 27.9538C36.1782 27.121 35.7618 26.7046 35.2883 26.5322C34.7861 26.3495 34.2357 26.3495 33.7335 26.5322C33.26 26.7046 32.8436 27.121 32.0108 27.9538L27.2786 32.686C25.0595 34.9051 25.0595 38.5029 27.2786 40.722C29.4976 42.941 33.0954 42.941 35.3145 40.722L40.0468 35.9897C40.8795 35.1569 41.296 34.7405 41.4683 34.267C41.6511 33.7649 41.6511 33.2144 41.4683 32.7123C41.296 32.2388 40.8795 31.8224 40.0468 30.9896Z" fill="#8FB9FF"/>
<path fill-rule="evenodd" clip-rule="evenodd" d="M38.7464 24.8677C39.07 24.5441 39.5947 24.5441 39.9183 24.8677L43.1327 28.0821C43.4563 28.4057 43.4563 28.9304 43.1327 29.2541C42.8091 29.5777 42.2844 29.5777 41.9608 29.2541L38.7464 26.0397C38.4227 25.7161 38.4227 25.1914 38.7464 24.8677Z" fill="#8FB9FF"/>
</g>
<path d="M39.9686 36.0682L31.9327 28.0322L30.7607 29.2042L38.7967 37.2401L39.9686 36.0682Z" fill="#2979FF"/>
<path d="M26.7351 40.0933C26.8985 40.3126 27.0797 40.5228 27.2788 40.7218C27.4778 40.9208 27.6879 41.102 27.9071 41.2653L26.0397 43.1326C25.7161 43.4562 25.1914 43.4562 24.8677 43.1326C24.5441 42.809 24.5441 42.2843 24.8677 41.9607L26.7351 40.0933Z" fill="#2979FF"/>
<path d="M39.1153 30.0577L37.9434 28.8857L39.768 27.061L40.94 28.233L39.1153 30.0577Z" fill="#2979FF"/>
<path d="M37.5073 38.529C37.5072 38.529 37.5073 38.529 37.5073 38.529L34.3191 35.3409C33.9955 35.0172 33.4708 35.0172 33.1471 35.3409C32.8235 35.6645 32.8235 36.1892 33.1471 36.5128L36.3353 39.701C36.3353 39.701 36.3353 39.701 36.3353 39.701L37.5073 38.529Z" fill="#2979FF"/>
<path d="M35.6992 40.3371C35.6992 40.3371 35.6992 40.3371 35.6992 40.3371L33.8805 38.5185C33.5569 38.1948 33.0322 38.1948 32.7085 38.5185C32.3849 38.8421 32.3849 39.3668 32.7085 39.6904L34.4502 41.4321C34.7552 41.2281 35.0448 40.9915 35.3141 40.7222L35.6992 40.3371Z" fill="#2979FF"/>
</g>
<defs>
<filter id="filter0_d_1843_7307" x="0.666665" y="0.666665" width="66.6667" height="66.6667" filterUnits="userSpaceOnUse" color-interpolation-filters="sRGB">
<feFlood flood-opacity="0" result="BackgroundImageFix"/>
<feColorMatrix in="SourceAlpha" type="matrix" values="0 0 0 0 0 0 0 0 0 0 0 0 0 0 0 0 0 0 127 0" result="hardAlpha"/>
<feOffset/>
<feGaussianBlur stdDeviation="6.66667"/>
<feComposite in2="hardAlpha" operator="out"/>
<feColorMatrix type="matrix" values="0 0 0 0 0.445833 0 0 0 0 0.445833 0 0 0 0 0.445833 0 0 0 0.1 0"/>
<feBlend mode="normal" in2="BackgroundImageFix" result="effect1_dropShadow_1843_7307"/>
<feBlend mode="normal" in="SourceGraphic" in2="effect1_dropShadow_1843_7307" result="shape"/>
</filter>
</defs>
</svg>
