<svg width="251" height="182" viewBox="0 0 251 182" fill="none" xmlns="http://www.w3.org/2000/svg">
<g opacity="0.7">
<path d="M134.448 128.662C128.936 130.336 132.332 141.434 132.109 143.445C133.806 180.658 98.9046 143.335 83.8544 150.914C69.4526 156.971 51.0092 171.675 44.6977 152.299C40.7026 138.771 49.3079 122.389 37.267 122.695C30.6167 122.703 22.4142 121.257 21.8389 113.413C20.483 100.692 34.9603 91.2042 43.3335 83.0405C50.783 70.2931 12.0264 29.8537 61.8613 38.4276C74.917 41.0006 71.7185 42.5274 79.3642 31.7034C95.8712 9.01083 118.603 7.32274 118.768 40.4682C118.232 52.7966 137.006 45.4726 144.453 49.0264C174.743 62.0616 130.782 80.3881 141.639 91.3146C175.774 114.859 159.713 119.71 134.448 128.662Z" fill="#8ACAFF"/>
<path d="M143.11 122.911C143.13 115.237 151.679 114.504 157.352 113.737C162.678 110.874 154.623 104.055 155.13 96.6824C154.479 77.7937 173.75 96.0388 180.014 87.3272C180.842 86.1688 181.661 84.9837 182.668 83.9789C192.812 73.9791 199.032 78.2415 202.833 92.9928C204.295 98.6575 207.08 97.7931 212.415 98.5682C214.589 98.8841 216.676 99.9599 217.788 101.857C222.762 110.34 209.091 116.283 213.407 123.166C233.827 145.047 206.961 139.959 205.162 149.157C202.034 165.136 196.341 162.437 190.026 158.566C184.475 155.165 177.662 154.659 171.618 157.084C158.895 162.209 155.051 157.259 154.832 146.327C154.714 140.79 152.528 135.478 148.588 131.606C143.005 126.106 143.11 122.911 143.11 122.911Z" fill="#D7EBFE"/>
<ellipse cx="82.5781" cy="78.1995" rx="11.875" ry="15" fill="white"/>
<ellipse cx="100.078" cy="78.1995" rx="11.875" ry="15" fill="white"/>
<path d="M187.091 113.609C186.695 118.426 183.275 122.075 179.452 121.761C175.63 121.446 172.852 117.287 173.249 112.471C173.645 107.654 177.065 104.005 180.887 104.319C184.709 104.634 187.487 108.793 187.091 113.609Z" fill="white"/>
<path d="M199.409 114.623C199.013 119.439 195.593 123.089 191.771 122.774C187.948 122.46 185.171 118.301 185.567 113.484C185.963 108.668 189.383 105.019 193.205 105.333C197.028 105.648 199.805 109.807 199.409 114.623Z" fill="white"/>
<circle cx="85.0781" cy="78.8245" r="3.125" fill="#6F6F6F"/>
<circle cx="182.578" cy="113.824" r="1.875" fill="#6F6F6F"/>
<circle cx="96.3281" cy="78.8245" r="3.125" fill="#6F6F6F"/>
<circle cx="190.078" cy="113.824" r="1.875" fill="#6F6F6F"/>
<path d="M192.807 124.968C190.865 130.557 178.224 129.982 178.224 122.818C178.038 121.001 179.091 118.994 181.061 118.732C182.075 118.597 183.18 118.779 184.167 119.265C185.379 120.03 186.601 119.856 187.884 119.475C191.681 118.415 194.221 121.403 192.807 124.968Z" fill="#82C5FF"/>
<path d="M184.344 124.414C183.442 126.513 182.087 130.243 184.272 131.374C185.23 131.871 185.966 132.011 186.559 131.944C188.548 131.72 189.48 129.121 188.806 127.237C188.55 126.519 188.161 125.695 187.642 124.663" stroke="white" stroke-width="1.875" stroke-linecap="round" stroke-linejoin="round"/>
<path d="M188.203 123.773C188.209 125.055 187.067 126.2 185.763 126.219C184.431 126.237 183.224 125.15 183.203 123.909C183.203 121.826 184.67 121.222 185.913 121.199C187.144 121.173 188.195 122.359 188.203 123.773Z" fill="#FFDD66"/>
</g>
</svg>
