<svg width="100" height="100" viewBox="0 0 100 100" fill="none" xmlns="http://www.w3.org/2000/svg">
<rect width="100" height="100" rx="24" fill="#FAFAFA"/>
<path d="M38.1 25H33.35C27.875 25 25 27.875 25 33.325V38.075C25 43.525 27.875 46.4 33.325 46.4H38.075C43.525 46.4 46.4 43.525 46.4 38.075V33.325C46.425 27.875 43.55 25 38.1 25Z" fill="#2979FF"/>
<path opacity="0.4" d="M66.6761 25H61.9261C56.4761 25 53.6011 27.875 53.6011 33.325V38.075C53.6011 43.525 56.4761 46.4 61.9261 46.4H66.6761C72.1261 46.4 75.0011 43.525 75.0011 38.075V33.325C75.0011 27.875 72.1261 25 66.6761 25Z" fill="#8FB9FF"/>
<path d="M66.6761 53.5748H61.9261C56.4761 53.5748 53.6011 56.4498 53.6011 61.8998V66.6498C53.6011 72.0998 56.4761 74.9748 61.9261 74.9748H66.6761C72.1261 74.9748 75.0011 72.0998 75.0011 66.6498V61.8998C75.0011 56.4498 72.1261 53.5748 66.6761 53.5748Z" fill="#2979FF"/>
<path opacity="0.4" d="M38.1 53.575H33.35C27.875 53.575 25 56.45 25 61.9V66.65C25 72.125 27.875 75 33.325 75H38.075C43.525 75 46.4 72.125 46.4 66.675V61.925C46.425 56.45 43.55 53.575 38.1 53.575Z" fill="#8FB9FF"/>
</svg>
