<svg width="100" height="100" viewBox="0 0 100 100" fill="none" xmlns="http://www.w3.org/2000/svg">
<rect width="100" height="100" rx="24" fill="#FAFAFA"/>
<path d="M50 25.25C59.7162 25.25 68.5932 32.4313 71.9584 41.985L72.17 42.6114L72.7239 43.0364L73.6572 43.6909C75.8348 45.2597 77 46.9918 77 49.7749C77 52.3891 75.9614 54.0661 74.0488 55.4573L73.6547 55.7319L72.3186 56.5988C72.2752 56.6207 72.2683 56.6085 72.2828 56.5608C69.2264 66.6087 60.0756 74.2999 50 74.2999C39.9695 74.2999 30.849 66.6683 27.7526 56.6758C27.7608 56.7023 27.7592 56.7138 27.7434 56.7105L27.7084 56.6945L26.471 55.8803L25.9597 55.525C24.0392 54.1148 23 52.4191 23 49.7749C23 47.1337 24.0301 45.4324 25.957 43.9556L26.3543 43.6631L27.4538 42.9021L27.8303 42.6282C31.0109 32.755 40.0664 25.25 50 25.25ZM50 29.75C42.1432 29.75 34.7266 35.8967 32.1135 44.008C31.7828 45.0345 31.1991 45.714 30.2466 46.4327L29.8719 46.7048L29.2325 47.1435L28.6737 47.5421C27.7917 48.2172 27.5 48.7458 27.5 49.7749C27.5 50.7849 27.7704 51.2748 28.6054 51.886L28.8731 52.0737L29.6788 52.5979L30.158 52.924C31.1325 53.6217 31.7254 54.2934 32.0509 55.3438C34.5937 63.5498 42.0633 69.7999 50 69.7999C57.9739 69.7999 65.4681 63.5011 67.9775 55.2513C68.298 54.1975 68.8912 53.5272 69.8672 52.8342L70.2514 52.5725L71.0389 52.0662L71.4171 51.8082C72.2379 51.2139 72.5 50.7438 72.5 49.7749C72.5 48.7766 72.2051 48.2475 71.3127 47.5553L71.0268 47.3421L70.2417 46.7923L69.7317 46.4193C68.7899 45.6945 68.2108 45.0125 67.8824 43.9955C66.5243 39.79 63.8753 36.1136 60.5438 33.5494C60.0492 34.8164 59.1592 35.8734 57.8849 36.6588C55.8148 37.9349 52.7826 38.474 48.7286 38.4042C47.4862 38.3829 46.4963 37.3583 46.5177 36.1159C46.539 34.8734 47.5636 33.8835 48.806 33.9049C52.0779 33.9612 54.337 33.5595 55.5236 32.8281C56.1521 32.4407 56.4733 31.9456 56.514 31.1554C54.4436 30.2496 52.2397 29.75 50 29.75ZM45.0664 56.8527C46.891 58.0809 48.5352 58.6624 50.0103 58.6624C51.4486 58.6624 52.9248 58.1081 54.4792 56.9305C55.4697 56.1801 56.8809 56.3748 57.6313 57.3653C58.3817 58.3558 58.187 59.7671 57.1965 60.5174C54.8992 62.2579 52.4905 63.1624 50.0103 63.1624C47.5628 63.1624 45.0735 62.2819 42.5536 60.5858C41.5228 59.8919 41.2496 58.4937 41.9435 57.4629C42.6374 56.432 44.0355 56.1588 45.0664 56.8527ZM42.5751 44.1498C43.012 44.1498 43.4763 44.4154 43.8572 44.9867C44.2354 45.5539 44.4876 46.3701 44.4876 47.2998C44.4876 48.2294 44.2354 49.0456 43.8572 49.6129C43.4763 50.1841 43.012 50.4498 42.5751 50.4498C42.1383 50.4498 41.6739 50.1841 41.2931 49.6129C40.9148 49.0456 40.6626 48.2294 40.6626 47.2998C40.6626 46.3701 40.9148 45.5539 41.2931 44.9866C41.6739 44.4154 42.1383 44.1498 42.5751 44.1498ZM57.425 44.1498C57.8618 44.1498 58.3262 44.4154 58.7071 44.9866C59.0853 45.5539 59.3375 46.3701 59.3375 47.2998C59.3375 48.2294 59.0853 49.0456 58.7071 49.6129C58.3262 50.1841 57.8618 50.4498 57.425 50.4498C56.9882 50.4498 56.5238 50.1841 56.1429 49.6129C55.7647 49.0456 55.5125 48.2294 55.5125 47.2998C55.5125 46.3701 55.7647 45.5539 56.1429 44.9867C56.5238 44.4154 56.9882 44.1498 57.425 44.1498Z" fill="#FCB5C5"/>
<path fill-rule="evenodd" clip-rule="evenodd" d="M50 29.75C42.1432 29.75 34.7266 35.8967 32.1135 44.008C31.7828 45.0345 31.1991 45.714 30.2466 46.4327L29.8719 46.7048L29.2325 47.1435L28.6737 47.5421C27.7917 48.2172 27.5 48.7458 27.5 49.7749C27.5 50.7849 27.7704 51.2748 28.6054 51.886L28.8731 52.0737L29.6788 52.5979L30.158 52.924C31.1325 53.6217 31.7254 54.2934 32.0509 55.3438C34.5937 63.5498 42.0633 69.7999 50 69.7999C57.9739 69.7999 65.4681 63.5011 67.9775 55.2513C68.298 54.1975 68.8912 53.5272 69.8672 52.8342L70.2514 52.5725L71.0389 52.0662L71.4171 51.8082C72.2379 51.2139 72.5 50.7438 72.5 49.7749C72.5 48.7766 72.2051 48.2475 71.3127 47.5553L71.0268 47.3421L70.2417 46.7923L69.7317 46.4193C68.7899 45.6945 68.2108 45.0125 67.8824 43.9955C66.5243 39.79 63.8753 36.1136 60.5438 33.5494C60.0492 34.8164 59.1592 35.8734 57.8849 36.6588C55.8148 37.9349 52.7826 38.474 48.7286 38.4042C47.4862 38.3829 46.4963 37.3583 46.5177 36.1159C46.539 34.8734 47.5636 33.8835 48.806 33.9049C52.0779 33.9612 54.337 33.5595 55.5236 32.8281C56.152 32.4407 56.4733 31.9456 56.514 31.1554C54.4436 30.2496 52.2397 29.75 50 29.75ZM50.0103 58.6624C48.5352 58.6624 46.891 58.0809 45.0664 56.8527C44.0355 56.1588 42.6374 56.432 41.9435 57.4629C41.2496 58.4937 41.5228 59.8919 42.5536 60.5858C45.0735 62.2819 47.5628 63.1624 50.0103 63.1624C52.4905 63.1624 54.8992 62.2579 57.1965 60.5174C58.187 59.7671 58.3817 58.3558 57.6313 57.3653C56.8809 56.3748 55.4697 56.1801 54.4792 56.9305C52.9248 58.1081 51.4486 58.6624 50.0103 58.6624ZM43.8572 44.9867C43.4763 44.4154 43.012 44.1498 42.5751 44.1498C42.1383 44.1498 41.6739 44.4154 41.2931 44.9866C40.9148 45.5539 40.6626 46.3701 40.6626 47.2998C40.6626 48.2294 40.9148 49.0456 41.2931 49.6129C41.6739 50.1841 42.1383 50.4498 42.5751 50.4498C43.012 50.4498 43.4763 50.1841 43.8572 49.6129C44.2354 49.0456 44.4876 48.2294 44.4876 47.2998C44.4876 46.3701 44.2354 45.5539 43.8572 44.9867ZM58.707 44.9866C58.3262 44.4154 57.8618 44.1498 57.425 44.1498C56.9882 44.1498 56.5238 44.4154 56.143 44.9867C55.7647 45.5539 55.5125 46.3701 55.5125 47.2998C55.5125 48.2294 55.7647 49.0456 56.143 49.6129C56.5238 50.1841 56.9882 50.4498 57.425 50.4498C57.8618 50.4498 58.3262 50.1841 58.707 49.6129C59.0853 49.0456 59.3375 48.2294 59.3375 47.2998C59.3375 46.3701 59.0853 45.5539 58.707 44.9866Z" fill="#FFF0F3"/>
</svg>
