<svg width="100" height="100" viewBox="0 0 100 100" fill="none" xmlns="http://www.w3.org/2000/svg">
<rect width="100" height="100" rx="24" fill="#FAFAFA"/>
<path fill-rule="evenodd" clip-rule="evenodd" d="M61.4817 44.0807C53.3968 35.2139 37.7326 35.1205 35.1427 44.8862L35.0646 45.2012C34.1309 49.2342 35.303 51.976 38.3205 55.3567L39.714 56.879L40.0861 57.3047C41.1372 58.5454 41.3089 59.0818 40.9843 59.8343C40.4864 60.9883 39.8268 61.7678 38.7882 62.5648L38.6273 62.6863L38.2672 62.9473L37.2459 63.6596C34.601 65.5355 33.4459 67.469 33.8096 70.841C34.6147 78.3045 43.0933 79.2471 51.2541 75.0219C64.2856 68.2746 68.9864 52.3108 61.4817 44.0807Z" fill="#FFB30F"/>
<path fill-rule="evenodd" clip-rule="evenodd" d="M42.1232 27.8627C40.7845 24.185 37.2761 21.8269 33.9351 22.8681L33.6848 22.9526C30.2705 24.1953 29.005 28.3683 30.3769 32.1378C31.7489 35.9074 35.4006 38.2906 38.8151 37.0481C42.2296 35.8052 43.495 31.6322 42.1232 27.8627Z" fill="#FFB30F"/>
<ellipse cx="49.3893" cy="29.7455" rx="3" ry="4.5" transform="rotate(5.0248 49.3893 29.7455)" fill="#FFDD66"/>
<ellipse cx="57.302" cy="32.2256" rx="2.5" ry="4" transform="rotate(19.6053 57.302 32.2256)" fill="#FFDD66"/>
<ellipse cx="62.8067" cy="35.639" rx="2" ry="3" transform="rotate(27.2503 62.8067 35.639)" fill="#FFE999"/>
<ellipse cx="66.4098" cy="40.0908" rx="1.66667" ry="2.5" transform="rotate(45 66.4098 40.0908)" fill="#FFE999"/>
</svg>
