<svg width="16" height="17" viewBox="0 0 16 17" fill="none" xmlns="http://www.w3.org/2000/svg">
<rect y="0.941406" width="16" height="16" rx="8" fill="#F2F2F2"/>
<path fill-rule="evenodd" clip-rule="evenodd" d="M9.57451 4.7317C9.82356 4.48266 10.2273 4.48266 10.4764 4.7317L12.2128 6.46815C12.4619 6.71719 12.4619 7.12098 12.2128 7.37002C11.9638 7.61907 11.56 7.61907 11.311 7.37002L10.8937 6.95272L9.60814 8.23824C9.3591 8.48729 8.95532 8.48729 8.70628 8.23824C8.45723 7.9892 8.45723 7.58542 8.70628 7.33638L9.9918 6.05086L9.57451 5.63357C9.32547 5.38453 9.32547 4.98075 9.57451 4.7317ZM6.16424 11.6822C6.41328 11.4331 6.41328 11.0294 6.16424 10.7803C5.9152 10.5313 5.51142 10.5313 5.26237 10.7803L3.78639 12.2563C3.53735 12.5054 3.53735 12.9091 3.78639 13.1582C4.03544 13.4072 4.43921 13.4072 4.68826 13.1582L6.16424 11.6822Z" fill="#5C99FF"/>
<path fill-rule="evenodd" clip-rule="evenodd" d="M7.58175 5.30983C7.33271 5.06079 6.92893 5.06079 6.67988 5.30983C6.43084 5.55887 6.43084 5.96265 6.67988 6.2117L7.31816 6.84997L5.12486 9.00018L5.12273 9.00228C4.98545 9.13941 4.87655 9.30224 4.80224 9.48149C4.72794 9.66073 4.6897 9.85286 4.6897 10.0469C4.6897 10.2409 4.72794 10.4331 4.80224 10.6123C4.87652 10.7915 4.98539 10.9543 5.1226 11.0914L5.85179 11.8205C5.98891 11.9578 6.15175 12.0668 6.331 12.1411C6.51024 12.2154 6.70237 12.2536 6.89641 12.2536C7.09044 12.2536 7.28257 12.2154 7.46181 12.1411C7.64106 12.0668 7.8039 11.9578 7.94102 11.8205L7.94312 11.8184L10.0934 9.62514L10.7316 10.2634C10.9806 10.5125 11.3844 10.5125 11.6334 10.2634C11.8825 10.0144 11.8825 9.61058 11.6334 9.36154L7.58175 5.30983Z" fill="#C2D9FF"/>
</svg>
