<svg width="16" height="17" viewBox="0 0 16 17" fill="none" xmlns="http://www.w3.org/2000/svg">
<g clip-path="url(#clip0_2653_2270)">
<path d="M7.99927 16.6621C12.4175 16.6621 15.9993 13.0804 15.9993 8.66211C15.9993 4.24383 12.4175 0.662109 7.99927 0.662109C3.58099 0.662109 -0.000732422 4.24383 -0.000732422 8.66211C-0.000732422 13.0804 3.58099 16.6621 7.99927 16.6621Z" fill="#F2F2F2"/>
<path d="M7.99937 8.79414C9.32485 8.79414 10.3994 7.71962 10.3994 6.39414C10.3994 5.06866 9.32485 3.99414 7.99937 3.99414C6.67388 3.99414 5.59937 5.06866 5.59937 6.39414C5.59937 7.71962 6.67388 8.79414 7.99937 8.79414Z" fill="#FFD191"/>
<path d="M12.4438 12.059C11.3871 10.9732 9.78844 10.2812 7.99936 10.2812C6.21026 10.2812 4.61165 10.9732 3.55493 12.059C4.61165 13.1448 6.21026 13.8368 7.99936 13.8368C9.78844 13.8368 11.3871 13.1448 12.4438 12.059Z" fill="#9DDBAB"/>
</g>
<defs>
<clipPath id="clip0_2653_2270">
<rect width="16" height="16" fill="white" transform="translate(0 0.660156)"/>
</clipPath>
</defs>
</svg>
